<?xml version="1.0" standalone="yes"?>
<svg xmlns="http://www.w3.org/2000/svg" width="1024" height="1024">
<path style="fill:#101313; stroke:none;" d="M507 137L509.056 137L511 136.972L512 136.917L514 136.611L516 136.222L517 136.083L519 136L520 136L522 136L524 136.028L525 136.083L527 136.389L528.944 136.778L530.5 136.972L532 137L533 136L533 123L536.056 123L538 123L540 123.028L541 123.083L543 123.389L544 123.611L546 123.944L548 124.222L549 124.389L551 124.778L552 124.917L554 125.083L556 125.389L557 125.611L558 125.806L560 126.194L561 126.389L563 126.861L564 127.139L565 127.361L566 127.639L567 127.861L568 128.139L570 128.639L571 128.861L573 129.389L574 129.694L576 130.333L577 130.667L580 131.667L583 132.667L585 133.333L587 134.028L588 134.389L590 135.25L591 135.778L592 136.222L593 136.778L594 137.222L595 137.778L596 138.222L597 138.778L599 139.778L600 140.222L601 140.778L602 141.222L604 142.222L605 142.778L606 143.222L607 143.778L608 144.222L609 144.778L610 145.25L612 146.389L613 147.028L614 147.667L616 149L621 152.333L624 154.333L625 155L626 155.694L627 156.389L628 157.139L630 158.639L631 159.361L632 160.139L634 161.639L635 162.389L637 164.083L639 165.917L640 166.778L642 168.389L644 170.083L645 171.028L647 173L648.972 175L649.917 176L651.611 178L652.389 179L654.083 181L655.917 183L657.611 185L658.361 186L659.861 188L660.639 189L661.361 190L662.139 191L663.611 193L665 195L665.667 196L666.972 198L667.611 199L668.75 201L669.222 202L669.778 203L670.222 204L670.778 205L671.222 206L671.778 207L672.778 209L673.222 210L673.778 211L674.778 213L675.222 214L675.778 215L676.222 216L676.778 217L677.75 219L678.611 221L679.333 223L679.667 224L680.389 226L680.806 227L681.611 229L682.306 231L682.861 233L683.139 234L683.389 235L684 237L684.583 239L684.806 240L685.194 242L685.611 244L685.917 246L686.083 248L686.222 249L686.611 251L686.917 253L686.972 254L687 256L687 257L687 259L687.083 261L687.389 263L687.611 264L687.917 266L687.972 267L688 269L688 271L688 276L688 284L688 287L688 289L688 290L688.083 292L688.222 293L688.417 294L688.694 295L689.389 297L690.278 299L690.833 300L691.389 301L692.694 303L693.417 304L694.194 305L695.806 307L696.611 308L698.139 310L698.861 311L699.639 312L700.361 313L701.139 314L701.861 315L702.611 316L704 318L705.333 320L707.333 323L708 324L708.694 325L709.389 326L710.139 327L711.611 329L713 331L714.333 333L716.333 336L717 337L718.389 339L719.139 340L719.833 341L720.556 342L721.806 344L722.389 345C723.026 346.019 723.694 347.019 724.389 348L725.139 349L726.611 351L728 353L728.667 354L730 356L730.694 357L731.389 358L732.861 360L733.639 361L734.361 362L735.139 363L735.861 364L737.306 366L738 367L739.333 369L742.667 374L743.333 375L744.694 377L745.417 378L746.194 379L747.806 381L748.583 382L749.306 383L750.667 385L751.889 387L752.583 389L752.556 390L751.667 391.889L750.889 392.667L749.972 393.278L749 393.667L748 393.889L746 394L745 394L744 394L742 394.028L741 394.083L739 394.389L738 394.611L736 394.917L735 394.972L733 395L731 395L727 395L726 395L722 395L715 395L709 395L708 395L706 395.028L705 395.083L703 395.389L702 395.611L700 395.917L698 396.111L696.111 396.722L695.306 397.333L694.111 399.028L693.694 400L692.972 402L692.194 403.944L691.806 404.944L691.5 405.5L691 407L689.5 406.639L687.944 405.667L686 404L685 403.083L684 402.222L682 400.611L681 399.778L680 398.917L678 397L676 395L675 394L673 392.083L672 391.222L671 390.417L669 389L667 387.667L665 386.306L664 385.583L662 383.944L661 383.056L659 381.417L657 380.028L655 378.917L654 378.472L652 377.861L651 377.611L649 377L648 376.667L646 376L644 375.417L643 375.222L642 375.083L640 375L638 374.917L636 374.583L635 374.306L633 373.611L632 373.194L630 372.444L629 372.139L627 371.333L625 370.111L623 368.611L621 366.944L620 366.056L618 364.389L616 362.806L615 362L613 360.472L611.056 359.25L610.5 359L609 358L607.583 358.528L606.361 359.5L605 361.083L603.667 363L603 364L601.611 366L600.861 367L600.139 368L599.361 369L598.611 370L596.917 372L595 374L593 376L589 380L589.778 381.5L590.306 382.056L591.111 383.056L592.028 384L593 385L595 386.917L596 387.778L597 388.611L599 390.222L600 391.083L602 392.972L603 393.917L604 394.75L605 395.528L607 396.833L608 397.444L609.944 398.778L610.5 399.25L612 400L611.5 401.5L610.722 403.056L610.167 404L609.639 405L608.639 406.944L608.111 408.5L608 410L609.417 410.333L609.833 410.639L610.667 411.083L611.389 411.639L613.028 412.722L614.5 413.5L616 414L615.917 415.5L615.528 417.056L614.722 419L613.556 421L612.833 422L611.472 424L610.583 426L610.583 428L610.972 429L611.5 430L613.083 432L614.028 433L616 435L617 436L619 438L624 443L626 445L626.972 446L627.917 447L629.611 449L630.389 450L632.083 452L633.028 453L635 455L637 457L637.972 458L638.917 459L640.611 461L641.389 462L643.083 464L644.028 465L646 467L648 469L650 471L652 473L656 477L658 479L659.972 481L660.917 482L662.611 484L663.389 485L665.083 487L666.028 488L668 490L669 491L671 493L672 494L674 495.917L674.972 496.778L676.778 498.389L677.611 499.222L679.222 501.028L681.028 503L682 504L683 505L685 507L687 509L689 511L690 512L692 514L699 521L702 524L703 525L705 526.917L706 527.778L708 529.389L710 531.083L711 532.028L713 534L717 538L719 540L720 541L728 549L730 551L732 552.972L733 553.917L735 555.611L736 556.389L738 558.083L739 559.028L741 561L743 563L745 565L747 567L748 568L750 570L754 574L756 576L758 577.917L760 579.611L761 580.389L762 581.222L764 582.944L766 584.528L768 585.722L770 586.556L771 586.833L773 587.361L775 587.778L776 587.917L778 588L779 588L781 588L782 587.972L783 587.917L785 587.583L787 587L788 586.667L789 586.306L791 585.444L792 584.917L794 583.583L796 581.944L797 581.056L798 580.222L799 579.389L800 578.611L802 576.917L804 575L806 573L811 568L812 567L814 565L815 564L817 562L818.917 560L819.778 559L821.306 557L822.667 555L823.972 553L824.583 552L825.5 550L825.917 548L825.972 547L826 545L826 544L826 542L826 541L825.917 539L825.528 537L824.722 535L823.528 533L821.944 531L821.056 530L819.389 528.083L817.806 526.389L816.194 524.861L815.417 524.139L814.694 523.389L814 522.694L813.333 522L812 520.667L810.583 519.306L809.778 518.583L808.917 517.778L807.972 516.917L807 515.972L805.083 514.028L804.222 513.083L802.611 511.389L801.778 510.611L799.972 508.917L798 507L796 505L791 500L787 496L786 495L784.028 493L783.083 492L781.389 490L780.611 489.028L778.917 487.222L777 485.611L775 483.917L773 482L772 481L770 479.083L768 477.389L766.083 475.778L764.389 474L763.611 473.083L761.917 471.389L760.972 470.611L759.028 468.917L758.083 467.972L756.389 466L754.778 464.083L753.917 463.222L752.972 462.389L751.083 460.778L750.222 459.917L748.611 458L746.917 456L745 454L744 453L742.083 451L740.389 449.083L739.611 448.222L738.778 447.389L736.972 445.778L736 444.917L735 443.972L733 442L731 440L729 438L725 434L723 432L722 431L720.083 429L718.5 427L717.944 426.056L717.278 424.5L717 423L718.5 423.417L720.056 423.778L721 423.917L723 424L725 424L727 424L728 423.972L729 423.917L731 423.611L733 423.222L734 423.083L736 423L737 423L739 423L745 423L747 423L749 422.972L750 422.917L752 422.611L753 422.361L755 421.861L756 421.611L758 421L760 420.333L761 419.972L762 419.611L763 419.194L765 418.389L767 417.611L769 416.722L770 416.139L771 415.528L772 414.75L773 413.917L774.917 412L775.778 411L776.583 410L777.306 409L778.611 407L779.167 406L779.722 405L780.611 403L781.306 401L781.583 400L781.917 398L781.972 397L782 395L782 392L782 391L782 389L781.917 387L781.778 386L781.583 385L781.306 384L780.611 382L779.75 380L778.75 378L777.611 376L776.389 374L775.25 372L774.75 371L773.611 369L772.972 368L772.333 367L771 365L769.667 363L769 362L768.306 361L767.611 360L766.861 359L765.389 357L764 355L762.667 353L760.667 350L758.667 347L758 346L756.667 344L754.667 341L752.667 338L752 337L750.611 335L749.139 333L748.389 332L747.694 331L746.306 329L745.611 328L744.139 326L743.389 325L742 323L740.667 321L740 320L738.611 318L737.139 316L736.389 315L735.694 314L735 313L733.667 311L733 310L732.306 309L731.611 308L730.861 307L729.389 305L728.694 304L728 303L726.667 301L725.389 299L724.194 297L723.611 296L722.306 294L721.583 293L719.944 291L719.056 290L717.417 288L716.722 287L716.111 286L715.306 284L715.111 283L715.028 282L715 281L715 280L715 277L715 276L715 271L715 263L715 260L715 259L714.972 257L714.917 256L714.611 254L714.389 253L714.056 251L713.778 249L713.611 248L713.222 246L713.083 245L712.972 243L712.917 242L712.778 241L712.361 239L712.139 238L711.861 237L711.389 235L711.194 234L710.806 232L710.611 231L710.139 229L709.861 228L709.611 227L709 225L708.333 223L707.667 221L707.333 220L706.611 218L706.194 217L705.389 215L705.028 214L704.667 213L704.333 212L703.667 210L702.972 208L702.611 207L701.75 205L701.222 204L700.778 203L700.25 202L699.389 200L698.611 198L697.75 196L697.222 195L696.778 194L696.222 193L695.75 192L695.167 191L694.611 190L693.972 189L693.333 188L692 186L690.667 184L688 180L687.333 179L686.667 178L685.333 176L684 174L682.611 172L681.861 171L681.139 170L679.611 168L677.944 166L677.056 165L675.389 163L674.611 162L672.917 160L671.972 159L670 157L669 156L667 154L666 153L664 151L662 149L660 147.028L659 146.083L657 144.389L656 143.611L654 141.944L653 141.056L651 139.389L649 137.861L648 137.139L647 136.361L646 135.639L645 134.861L643 133.389L642 132.694L640 131.333L639 130.667L636 128.667L635 128L632 126L630 124.667L629 124.028L628 123.389L627 122.806L625 121.611L623 120.389L622 119.833L621 119.25L620 118.778L618 117.778L617 117.222L616 116.778L615 116.222L613 115.25L612 114.833L611 114.389L609 113.611L608 113.167L607 112.75L606 112.222L604 111.222L603 110.778L602 110.222L601 109.778L600 109.25L598 108.389L597 108.028L596 107.667L595 107.333L593 106.611L591 105.806L590 105.389L588 104.667L587 104.333L585 103.667L583 103L582 102.694L581 102.389L579 101.861L578 101.639L577 101.361L576 101.139L575 100.861L573 100.361L572 100.139L571 99.8611L569 99.3889L568 99.1945L566 98.8055L565 98.6111L563 98.1389L562 97.8611L561 97.6389L560 97.3889L558 97.0555L557 96.9445L556 96.7778L554 96.3889L552 96.0833L551 96.0278L549 95.9167L547 95.6111L546 95.3889L544 95.0833L543 95.0278L542 95L540 95L538 95L536 94.9167L534 94.6111L532 94.2222L531 94.0833L529 93.9167L528 93.7778L526 93.3889L525 93.2222L524 93.0833L522 93L521 93L519 93.0833L517 93.4167L516 93.6945L514 94.3889L513 94.8333L512 95.2778L510.028 96.4722L508.25 98.0833L506.944 100L506.5 101L506.083 103L506 105L506 106L506 107L506 108L506.083 110L506.222 111L506.611 113L506.917 115L507 117L506.972 118L506.917 119L506.611 121L506.389 122L506.083 124L506.028 125L506 127L506 128L506.028 130L506.083 131L506.389 133L506.611 133.944L506.778 134.944L506.917 135.5L507 137M285 423L285 451L285 458L285 460L285.028 462L285.083 463L285.389 465L285.611 466L285.806 467L286.194 469L286.389 470L286.861 472L287.167 473L287.444 474L288.25 476L288.778 477L289.778 479L290.25 480L291.472 482L293.083 484L295 486L296 487L297 488L299 489.917L301 491.611L302 492.361L304 493.861L306 495.389L308 497.056L309.944 498.667L311.5 499.639L313 500L313 503.056L313 504L312.972 506L312.917 507L312.611 509L312.389 510L312.083 512L312.028 513L312 515L312 517L312 519L312.028 520L312.083 521L312.389 523L312.611 524L312.917 526L313.083 528L313.389 530L313.806 532L314.194 534L314.417 535L315 537L315.333 538L316.028 540L316.389 541L316.806 542L317.611 544L318.389 546L318.833 547L319.25 548L319.778 549L320.778 551L321.25 552L322.444 554L323.167 555L324.639 557L325.389 558L327.083 560L328.917 562L329.778 562.972L331.389 564.778L332.222 565.611L333.083 566.389L335 568.083L337 569.917L339 571.583L340 572.306L342 573.667L344 575L346 576.333L347 576.972L348 577.611L349 578.167L350 578.75L351 579.222L353 580.222L354 580.75L355 581.167L356 581.611L358 582.389L360 583.194L361 583.611L363 584.306L365 584.861L367 585.361L368 585.639L369 585.861L371 586.361L372 586.611L374 586.944L375 587.056L376 587.222L377 587.389L378 587.611L380 587.917L381 587.972L383 588L385 588.028L386 588.083L388 588.389L389 588.611L391 588.917L392 588.972L393 589L395 589L400 589L406 589L408 589L410 588.972L411 588.917L413 588.611L414 588.389L416 588.083L417 588.028L419 588L420 588L424 588L437 588L442 588L444 588L446 587.917L447 587.778L449 587.389L451 587.083L452 587.028L453.944 587L454.944 587L457 587L457 623L457.722 622.222L457.75 621.75L457.944 620.944L458 619L459 618L479 618L480 617L480 614.944L480 613.944L480.028 612L480.083 611L480.389 609L480.611 608L480.917 606L480.972 605L481 604L481.028 602L481.083 601L481.389 599L481.778 597L481.917 596L482.028 594L482.083 593L482.389 591L482.611 590L482.917 588L482.972 587L483 585L483 583L483.028 582L483.083 581L483.389 579L483.611 578L483.917 576L483.972 575L484.083 573L484.222 572L484.611 570L484.917 568L484.972 567L485 566L485 564L485 559L475 559L473 559L472 559L470 559.028L469 559.083L467 559.389L465 559.778L464 559.917L462 560L461 560L459 560L454 560L439 560L435 560L433 560L431 560.083L429 560.389L428 560.611L426 560.917L425 560.972L423 561L422 561L416 561L398 561L389 561L387 561L386 561L384 560.972L383 560.917L381 560.611L380 560.389L379 560.222L378 560.056L377 559.944L375 559.611L374 559.361L372 558.861L371 558.611L369 557.972L368 557.611L367 557.194L365 556.389L363 555.611L361 554.722L359 553.611L358 552.972L356 551.583L354 549.917L353 548.972L352 548L350 546L349 545L347.083 543L346.25 542L345.472 541L344.25 539L343.778 538L343.25 537L342.389 535L342.028 534L341.389 532L341.139 531L340.639 529L340.389 528L340.083 526L340.028 525L340 523L340 521L340 519L340.028 518L340.083 517L340.389 515L340.611 514L340.917 512L340.972 511L341 510L341 508L341 506L340.917 504L340.778 503L340.361 501L339.833 499L339.528 498L338.583 496L337.972 495L336.583 493L334.917 491L333 489L332.028 488L331.111 487.056L330.306 486.056L329.778 485.5L329 484L331.056 484L332.056 484.028L333 484.083L335 484.389L336 484.611L338 484.917L339 484.972L341 485L342 485L344 485L346 485L347 485L348 485L350 484.917L351 484.778L352 484.611L354 484.194L356 483.778L357 483.528L359 482.722L361 481.528L362.917 479.917L364.5 478L365.528 476L365.833 475L366.361 473L366.611 472L366.917 470L367 468L367 467.056L367 466.056L367 464L365.5 463L364.944 462.778L363.944 462.222L362 461.472L360 461.083L358 460.917L357 460.778L355 460.389L354 460.222L353 460.083L351 460L350 460L348 460L346 460L344 460.028L343 460.083L341 460.389L340 460.611L338 460.917L337 460.972L336 461L334 461L332 461L331 461L329 460.917L327 460.611L326 460.389L324 460.083L323 460.028L322 460L320 459.917L318 459.5L317 459.056L316.028 458.5L314.333 456.917L313.333 455L313.083 454L312.778 452L312.611 451L312.389 450L312.083 448L312.028 447L312 446L312 444L312 442L312 438L312 437L312 434L312 426L312 420L312 418L312.028 417L312.083 416L312.389 414L312.611 413L312.917 411L312.972 409L312.917 408L312.611 406L312.389 405L311.972 403L311.694 402L311.278 401L310.667 400L309.889 399.028L308 397.333L306 396.306L305 396.028L303 395.611L301 395.222L300 395.083L298 395L296 395L292 395L287 395L285 395L284 394.972L283 394.917L281 394.611L280 394.389L278 394.083L277 394.028L275 394L273 394L265 394L262 394L261 394L259 393.917L258 393.778L256 393.389L254 393L252 392.528L250.028 391.722L248.25 390.528L246.889 388.917L246.111 387L245.944 386L246.111 385L246.333 384L247.222 382L247.778 381L248.25 380L249.389 378L250.611 376L251.806 374L252.389 373L253.611 371L254.806 369L255.389 368L256.667 366L257.333 365L258.667 363L259.333 362L259.972 361L260.611 360L261.194 359L262.389 357L263.667 355L264.333 354L265.667 352L266.333 351L266.972 350L267.611 349L268.194 348L269.389 346L270.611 344L271.806 342L272.389 341L273.667 339L274.333 338L274.972 337L275.611 336L276.806 334L277.389 333L278.667 331L280 329L283.333 324L286.667 319L288 317L288.694 316L289.417 315L290.194 314L291.806 312L292.583 311L293.306 310L294.694 308L295.417 307L297.083 305L298.028 304L299 303L301 301L301.972 300L302.917 299L304.5 297L305.056 296L305.5 295L305.917 293L306 291L306 289L306 288L306 285L306 282L306 278L306 274L306 266L306 260L306 259L306 249L306 248L306 244L306 243L306 239L306 234L306 232L306 231L305.972 230L305.944 229.056L305.75 228.056L305.722 227.5L305 226L307.056 226.583L308.056 226.778L309 226.917L311 227L312 227L313 227L315 227L317 227L319 226.972L320 226.917L322 226.611L323 226.389L325 226.056L326 225.944L328 225.611L329 225.389L331 225.056L332 224.944L334 224.611L335 224.361L337 223.861L338 223.639L339 223.361L340 223.139L342 222.639L343 222.361L344 222.139L346 221.611L347 221.306L349 220.694L350 220.389L352 219.861L353 219.639L354 219.361L355 219.139L357 218.611L358 218.306L360 217.694L361 217.389L362 217.139L364 216.611L365 216.306L366 216L368 215.333L370 214.611L371 214.194L373 213.389L375 212.611L376 212.194L378 211.389L380 210.611L382 209.75L383 209.25L385 208.389L387 207.611L388 207.167L389 206.75L391 205.778L392 205.222L393 204.778L395 203.778L396 203.222L397 202.778L398 202.222L399 201.75L401 200.611L402 199.972L404 198.667L406 197.306L407 196.611L409 195.139L410 194.361L411 193.639L412 192.861L413 192.139L415 190.611L416 189.806L418 188.194L419 187.389L420 186.611L422 184.917L423 183.972L425 182.083L426 181.222L428 179.611L429.972 177.917L430.917 176.972L432.611 175L433.389 174L434.222 173L435.056 172L435.944 171L437.611 169L438.361 168L439.139 167L439.861 166L441.389 164L442.194 163L443 162L444.583 160L445.306 159L446.694 157L448.167 155.111L449.528 153.778L451 153L451 155.056L451 156.056L451 157L451 159L451.083 161L451.417 163L452.028 164.944L452.194 165.5L453 167L454.25 166.222L454.667 165.694L456.139 163.972L457.639 162L458.389 161L460.083 159.028L461.028 158.083L463 156.417L465 155.028L466 154.389L467 153.833L468 153.25L469 152.778L470 152.25L472 151.389L473 151.028L474 150.667L476 150L477 149.667L478 149.333L479.917 148.583L481.5 147.5L482.056 146.75L482.5 145.917L482.917 144L482.972 143L483 141L483 140L483 138L483 133L483 131L483 129L483 128L483 126L483 125L482.972 123L482.917 122L482.611 120L482.389 119L482.083 117L482.028 116L482 114L481.972 113L481.917 112L481.611 110L481.389 109L481.083 107L481.028 106L481 105L481 103L480.917 101L480.5 99.0278L479.5 97.25L478.75 96.5L476.972 95.5L476 95.25L475 95.0833L473 95L471 95L468 95L466 95L465 95L463 95.0278L462 95.0833L460 95.3889L459 95.6111L457 95.9167L455 96.0278L454 96.0833L452 96.3889L451 96.6111L449 96.9445L448 97.0555L446 97.3889L445 97.6111L443 97.9445L442 98.0555L440 98.3889L439 98.6111L438 98.8055L436 99.1945L435 99.3889L434 99.6111L433 99.8055L431 100.194L430 100.389L428 100.806L426 101.194L425 101.389L423 101.861L422 102.139L421 102.389L420 102.694L418 103.306L417 103.611L415 104.139L414 104.361L413 104.639L411 105.139L410 105.389L409 105.694L408 106L406 106.667L405 107L403 107.611L401 108.167L400 108.444L399 108.833L397 109.611L395 110.333L394 110.667L392 111.333L391 111.667L390 112.028L389 112.389L387 113.25L386 113.778L385 114.222L384 114.778L383 115.222L382 115.778L381 116.222L379 117.222L378 117.778L377 118.222L376 118.75L374 119.639L373 120.056L371 121.056L370 121.639L369 122.167L368 122.75L366 123.778L365 124.222L364 124.778L363 125.25L362 125.833L361 126.389L360 127.028L359 127.667L357 129L355 130.333L351 133L348 135L347 135.667L345 137L344 137.694L343 138.417L342 139.194L340 140.806L338 142.389L336 144L334 145.611L333 146.389L331 148.083L330 149.028L328 151L326 153L323 156L321 158L320 159L318.028 161L317.083 162L315.389 164L314.611 165L313.806 166L312.194 168L311.389 169L310.639 170L309.861 171L308.389 173L307.694 174L306.306 176L305.611 177L304.167 179L303.444 180L302.194 182L301.611 183L300.333 185L299.667 186L298.389 188L297.806 189L296.611 191L295.389 193L294.833 194L294.25 195L293.778 196L292.778 198L292.222 199L291.778 200L291.222 201L290.778 202L290.222 203L289.778 204L288.778 206L288.25 207L287.389 209L286.611 211L285.75 213L285.25 214L284.389 216L284.028 217L283.667 218L283.333 219L282.667 221L282 223L281.694 224L281.389 225L281.139 226L280.861 227L280.389 229L280.194 230L279.806 232L279.389 234L279.056 236L278.944 237L278.611 239L278.389 240L278.083 242L278.028 243L278 244L278 246L278 251L278 255L278 256L278 263L278 265L278 266L278 270L278 273L278 275L278.028 277L278.083 278L278.278 280L278.278 281L277.667 283L276.389 285L275 287L273.667 289L272.333 291L269 296L267.667 298L267 299L265.611 301L264.861 302L264.167 303L263.444 304L262.194 306L261.611 307L260.333 309L259.667 310L258.333 312L255 317L252.333 321L250.333 324L249.667 325L249.028 326L248.389 327L247.806 328L246.611 330L245.389 332L244.194 334L243.611 335L242.389 337L241.194 339L240.611 340L239.333 342L238.667 343L237.389 345L236.806 346L235.556 348L234.167 350L233.444 351L232.194 353L231.611 354L230.333 356L229.667 357L228.333 359L227.667 360L226.389 362L225.806 363L225.194 364L224 366L222.806 368L222.194 369L221.611 370L220.389 372L219.833 373L219.278 374L218.833 375L218.389 376L217.694 378L217.389 379L217.139 380L216.639 382L216.389 383L216.083 385L216.028 386L216 387L216 389L216 391L216.028 392L216.083 393L216.389 395L216.861 397L217.167 398L217.444 399L217.833 400L218.639 402L219.556 404L220.083 405L221.417 407L223.083 409L225 411L227 412.917L228 413.75L229 414.528L231 415.75L232 416.222L233 416.75L235 417.611L236 417.972L238 418.667L239 419L241 419.583L242 419.806L244 420.194L245 420.389L246 420.611L248 420.917L250 421L251 421L253 421.083L254 421.222L256 421.611L257 421.778L258 421.917L260 422L261 422L263 422L265 422.028L266 422.083L268 422.389L269 422.611L271 422.917L272 422.972L274 423L276 423L285 423M429 127L429 128.5L428.917 130.056L428.5 132L428.083 133L427.583 134L426.333 136L425 138L423.667 140L423 141L421.583 143L420 145L419.194 146L418.389 147L416.861 149L416.139 150L415.361 151L414.611 152L412.917 154L411 156L410 157L408 159L406 161L404 162.972L403 163.917L401 165.611L400 166.389L398 168L396 169.611L394 171.139L393 171.861L392 172.611L390 173.972L388 175.194L387 175.806L386 176.389L384 177.667L383 178.333L381 179.611L380 180.167L379 180.75L378 181.222L377 181.75L375 182.611L373 183.389L371 184.194L370 184.611L368 185.389L366 186.25L365 186.75L363 187.556L362 187.833L360 188.389L359 188.694L357 189.306L356 189.611L354 190.139L353 190.389L352 190.694L350 191.333L349 191.667L347 192.333L346 192.667L344 193.306L343 193.611L341 194.139L340 194.361L339 194.611L338 194.806L336 195.194L335 195.389L334 195.611L332 195.917L331 195.972L329.056 196L327 196L327.111 194.5L327.639 192.944L328.639 191L329.833 189L330.444 188L331.167 187L332.611 185L333.306 184L334.694 182L335.417 181L336.222 180L337.083 179L339 177L340 176L342 174L343 173L345 171L347 169L349 167.028L350 166.083L352 164.389L353 163.611L354 162.806L356 161.194L357 160.389L359 158.861L360 158.139L361 157.389L362 156.694L363 156L364 155.333L365 154.667L367 153.333L369 152L370 151.333L372 150.028L373 149.389L375 148.25L376 147.778L377 147.222L378 146.778L379 146.222L381 145.222L382 144.778L383 144.222L384 143.778L385 143.222L386 142.778L387 142.222L388 141.778L389 141.25L391 140.389L393 139.611L395 138.806L396 138.389L398 137.611L400 136.806L401 136.389L402 136.028L403 135.667L404 135.333L406 134.611L407 134.194L409 133.389L410 133.028L412 132.333L414 131.694L415 131.389L417 130.861L418 130.611L419 130.306L421 129.667L423 128.972L423.944 128.639L424.944 128.167L425.5 127.972L427 127L429 127M515 150.389L514 150.611L512 150.944L511 151.056L509 151.389L507 151.806L505 152.194L504 152.417L503 152.694L501 153.333L500 153.667L498 154.389L497 154.806L495 155.611L493 156.333L492 156.667L490 157.389L489 157.806L487 158.611L485 159.333L484 159.667L482 160.389L481 160.806L479 161.611L477 162.389L475 163.25L474 163.778L473 164.25L472 164.861L471 165.444L469 166.861L468 167.639L466 169.139L464 170.639L463 171.389L461 173.056L460 173.944L459 174.778L457 176.389L455 178.083L454 179.028L452 180.972L451.028 181.917L449.222 183.611L448.389 184.389L447.611 185.222L445.917 187.028L444.083 189L442.389 191L441.611 192L439.944 194L439.056 195L437.389 197L435.861 199L435.139 200L434.389 201L433 203L432.333 204L431 206L429.667 208L429.028 209L428.389 210L427.833 211L427.25 212L426.778 213L425.778 215L425.25 216L424.833 217L424.389 218L423.611 220L422.806 222L422.389 223L421.611 225L421.194 226L420.833 227L420.444 228L419.861 230L419.611 231L419.306 232L418.694 234L418.389 235L417.861 237L417.639 238L417.361 239L417.139 240L416.861 241L416.389 243L416.194 244L415.806 246L415.611 247L415.222 249L415.083 250L414.972 252L414.917 253L414.611 255L414.389 256L414.083 258L414.028 259L414 261L414 263L414 265L414 266L414 268L414 269L414 271L414.028 273L414.083 274L414.389 276L414.611 277L414.917 279L414.972 280L415 281L415.028 283L415.083 284L415.389 286L415.611 287L415.917 289L415.972 290L416.083 292L416.222 293L416.639 295L417.139 297L417.361 298L417.639 299L417.861 300L418.389 302L419 304L419.333 305L420 307L420.667 309L421.028 310L421.389 311L422.25 313L422.778 314L423.222 315L423.778 316L424.222 317L424.778 318L425.778 320L426.25 321L426.833 322L427.389 323L428.611 325L429.806 327L430.389 328L431.028 329L431.667 330L433 332L433.694 333L434.389 334L435.139 335L436.611 337L437.306 338L438 339L438.667 340L440 342L441.417 344L443.083 346L445 348L446 349L448 351L450 353L451 354L453 355.917L455 357.611L456 358.361L458 359.861L459 360.611L461 362L462 362.667L464 364L467 366L468 366.667L470 367.972L471 368.611L473 369.75L474 370.25L476 371.389L478 372.611L479 373.167L480 373.75L481 374.222L482 374.75L484 375.611L486 376.389L488 377.194L489 377.611L491 378.389L492 378.806L493 379.167L494 379.556L496 380.139L497 380.361L498 380.639L499 380.861L501 381.361L502 381.611L504 381.944L505 382.056L507 382.389L508 382.611L510 382.917L511 382.972L513 383.083L515 383.389L516 383.611L518 383.917L519 383.972L520 384L522 384L527 384L535 384L537 384L538 384L540 383.917L541 383.778L543 383.389L545 383.056L546 382.944L548 382.611L549 382.361L551 381.861L552 381.639L553 381.361L554 381.139L556 380.639L557 380.361L559 379.861L560 379.639L561 379.361L562 379.139L564 378.611L566 377.972L567 377.611L568 377.194L570 376.389L572 375.583L574 374.583L576 373.389L577 372.833L578 372.25L580 371.222L581 370.778L582 370.222L583 369.75L584 369.167L585 368.611L587 367.333L588 366.667L590 365.306L591 364.583L592 363.806L594 362.194L595 361.389L596 360.611L598 358.917L599 357.972L601 356L602 355L605 352L608 349L609 348L610.972 346L611.917 345L613.611 343L614.361 342L615.139 341L615.861 340L617.361 338L618.139 337L618.833 336L619.556 335L620.75 333L621.222 332L621.778 331L622.222 330L622.778 329L623.25 328L623.833 327L624.389 326L625.611 324L626.167 323L626.75 322L627.778 320L628.222 319L628.778 318L629.222 317L629.75 316L630.611 314L630.972 313L631.333 312L632 310L632.667 308L633 307L633.611 305L634.139 303L634.361 302L634.639 301L634.861 300L635.361 298L635.611 297L635.917 295L636.083 293L636.222 292L636.611 290L636.917 288L636.972 287L637.028 285L637.083 284L637.389 282L637.611 281L637.917 279L637.972 278L638 276L638 273L638 271L637.972 269L637.917 268L637.611 266L637.389 265L637.083 263L637.028 262L637 260L637 258L636.972 257L636.917 256L636.611 254L636.389 253L636.056 251L635.944 250L635.611 248L635.389 247L635.194 246L634.806 244L634.611 243L634.389 242L634 240L633.583 238L633 236L632.667 235L632 233L631.333 231L630.972 230L630.611 229L630.194 228L629.389 226L628.611 224L627.75 222L627.25 221L626.389 219L625.611 217L624.75 215L624.222 214L623.75 213L623.167 212L622.611 211L621.389 209L620.194 207L619.611 206L618.333 204L617 202L615.667 200L615 199L613.611 197L612.861 196L611.361 194L610.639 193L609.861 192L608.361 190L607.611 189L605.917 187L604.972 186L603 184L601 182L599 180L597 178L596 177.028L595 176.083L593 174.389L592 173.611L590 172L588 170.389L586 168.861L585 168.139L583 166.694L581 165.389L580 164.806L578 163.611L576 162.389L575 161.833L574 161.278L573 160.833L571 160L570 159.611L568 158.806L567 158.389L565 157.611L563 156.806L562 156.389L561 156.028L559 155.333L557 154.694L556 154.389L555 154.139L553 153.639L552 153.361L551 153.139L549 152.639L548 152.389L546 152.056L545 151.944L543 151.611L542 151.389L540 151.056L539 150.944L537 150.611L536 150.389L534 150.083L533 150.028L532 150L530 150L524 150L521 150L519 150L517 150.083L515 150.389M516 177.222L517 177.083L519 177L520 177L523 177L526 177L527 177L529 177.028L530 177.083L532 177.389L533 177.611L535 177.917L536 177.972L538 178.083L540 178.389L541 178.639L543 179.139L544 179.389L546 180L548 180.667L550 181.389L551 181.806L553 182.611L555 183.389L556 183.833L557 184.25L558 184.778L560 185.778L561 186.222L562 186.778L563 187.25L565 188.389L566 189.028L568 190.333L570 191.694L571 192.389L572 193.139L573 193.861L575 195.389L577 197L579 198.611L580 199.389L581.972 201.083L582.917 202.028L584.611 204L585.389 205L587.083 207L588 208L589.778 210L590.611 211L592.139 213L592.861 214L593.611 215L594.972 217L596.167 219L596.75 220L597.25 221L598.389 223L599.611 225L600.167 226L600.722 227L601.167 228L601.611 229L602.389 231L603.194 233L603.611 234L603.972 235L604.333 236L605 238L605.306 239L605.611 240L605.861 241L606.361 243L606.639 244L606.861 245L607.361 247L607.611 248L607.944 250L608.056 251L608.389 253L608.611 254L608.944 256L609.056 257L609.389 259L609.611 260L609.917 262L609.972 263L610 265L610 267L610 270L610 273L610 275L609.972 277L609.917 278L609.611 280L609.389 281L609.056 283L608.944 284L608.611 286L608.222 288L607.944 290L607.778 291L607.611 292L607.139 294L606.861 295L606.639 296L606.361 297L606.139 298L605.861 299L605.611 300L605 302L604.333 304L603.972 305L603.611 306L603.194 307L602.389 309L601.611 311L601.167 312L600.75 313L600.222 314L599.222 316L598.75 317L598.139 318L597.556 319L596.139 321L594.611 323L593.806 324L592.194 326L590.611 328L589.778 329L588.917 330L587 332L586 333L584 334.972L583 335.917L581 337.611L580 338.361L579 339.139L578 339.861L576 341.361L575 342.139L574 342.833L573 343.556L571 344.75L570 345.222L569 345.778L568 346.222L567 346.778L566 347.222L565 347.778L564 348.222L563 348.778L562 349.222L561 349.75L559 350.611L558 350.972L557 351.333L555 352L553 352.667L552 353L551 353.306L550 353.611L548 354.139L547 354.361L546 354.611L545 354.806L543 355.194L541 355.611L540 355.778L538 356L537 356.083L535 356.389L534 356.611L532 356.917L531 356.972L529 357L528 357L527 357L525 356.917L524 356.778L523 356.611L521 356.222L520 356.083L518 355.917L516 355.611L515 355.361L514 355.139L513 354.861L511 354.389L510 354.194L509 354L507 353.583L505 353L503 352.389L501 351.833L500 351.556L499 351.167L497 350.389L495 349.611L494 349.167L493 348.75L492 348.222L490 347.222L489 346.778L488 346.222L487 345.75L485 344.611L484 343.972L482 342.667L480 341.306L479 340.611L477 339.139L476 338.361L475 337.611L473 335.917L471 334.028L469 332.222L467 330.611L465 328.917L464 327.972L463 327L461.083 325L459.389 323L458.611 322L457.806 321L456.194 319L455.417 318L454 316L453.333 315L452.028 313L451.389 312L450.25 310L449.778 309L449.222 308L448.778 307L448.222 306L447.778 305L447.222 304L446.778 303L446.25 302L445.389 300L445.028 299L444.389 297L443.861 295L443.639 294L443.361 293L443.139 292L442.861 291L442.361 289L442.139 288L441.861 287L441.389 285L441.083 283L440.917 281L440.611 279L440.389 278L440.083 276L440.028 275L440 273L440 271L440 268L440 265L440 263L440.028 261L440.083 260L440.389 258L440.611 257L440.944 255L441.056 254L441.389 252L441.806 250L442.194 248L442.389 247L442.639 246L442.861 245L443.139 244L443.389 243L444 241L444.333 240L444.667 239L445.333 237L446.333 234L446.667 233L447.028 232L447.389 231L448.25 229L448.778 228L449.222 227L449.778 226L450.222 225L450.778 224L451.778 222L452.25 221L452.833 220L453.389 219L454.028 218L455.333 216L456.694 214L457.389 213L458.861 211L459.639 210L460.389 209L462.083 207L464 205L466 203L468 201L469 200.028L470 199.083L472 197.389L473 196.611L474 195.806L476 194.194L477 193.417L479 192L480 191.333L482 190L484 188.667L485 188.028L486 187.389L488 186.25L489 185.778L491 184.778L492 184.222L493 183.778L494 183.25L496 182.389L497 182.028L498 181.667L499 181.333L501 180.667L503 180L504 179.694L505 179.389L506 179.139L507 178.861L509 178.389L511 178.056L512 177.944L513 177.778L514 177.611L516 177.222M508 188L507 189L507 191.056L507 199L507 201L507 203L507 206L507 211L507 212L507 214L507 218L507 219L507 222L507 228L507 238L507 239L507 241L507 244L507 248L507 252L507 255L507 261L507 262L507 267L507 275L507 283L507 288L507 291L507 295L507 311L507 315L507 319L507 320L507 322L507 323L507 329L507 334L507 336L507 344L520 344L523 344L525 344L527 344.028L528 344.083L529.944 344.389L531.5 344.75L533 345L533 342.944L533 340L533 339L533 336L533 334L533 327L533 319L533 317L533 306L533 302L533 301L533 293L533 287L533 286L533 284L533 279L533 263L533 255L533 251L533 243L533 238L533 230L533 225L533 218L533 213L533 212L533 208L533 200L533 198L533 197L533 193L533 192L533 188L530.944 188L529.944 187.972L529 187.917L527 187.611L526 187.389L524 187.083L522 187L521 187L519 187L517 187.028L516 187.083L514 187.389L513 187.611L511.056 187.917L510.056 187.972L508 188M346 270.389L345 270.639L343 271.167L342 271.472L340 272.5L338.028 274.083L336.306 276L335.111 278L334.417 280L334.083 282L334.028 283L334.028 285L334.083 286L334.25 287L334.5 288L335.5 289.972L337.083 291.694L338.028 292.361L340 293.278L341 293.583L343 293.917L344 293.972L346 294L347 294L350 294L368 294L372 294L374 294L375 294L377 293.917L379 293.583L380 293.306L382 292.583L383.917 291.5L385.5 289.917L386.083 288.972L386.972 287L387.583 285L387.917 283L387.972 282L388 281L387.917 279L387.5 277.028L387.056 276.083L386.5 275.222L385.75 274.417L383.972 273.083L383 272.556L382 272.083L380 271.389L379 271.139L377 270.639L376 270.389L374 270.083L373 270.028L371 270L370 270L368 270L359 270L354 270L352 270L350 270L348 270.083L346 270.389M507 396L507 401L507 407L507 408L507 412L507 413L506.972 415L506.917 416L506.611 418L506.389 419L506.111 421L506.111 422L506.389 424L506.611 425L506.917 427L506.972 428L507 430L507 431L507 434L507 440L507 442L507 443L506.917 445L506.611 447L506.389 448L506.083 450L506 452L506.083 454L506.389 456L506.611 457L506.917 459L507 461L507 463L506.972 465L506.917 466L506.611 468L506.222 470L506.083 471L506 473L506 475L506 478L506 487L506 516L506 550L506 561L506 565L506 567L506.083 569L506.389 571L506.611 572L506.917 574L507 576L507 578L507 583L507 585L507 586L506.972 588L506.917 589L506.611 591L506.389 592L506.083 594L506.028 595L506 597L506 598L506 600L506 607L506 608L506 626L506 682L506 750L506 760L506 763L506 764L506.083 766L506.25 767L506.472 768L506.861 769L507.278 770L508.472 771.917L509.25 772.75L511.028 774.139L512 774.75L513 775.222L515 776.139L516 776.528L518 776.917L520 777L522 776.917L524 776.528L525 776.139L527 775.222L528.972 774.139L529.917 773.528L531.5 771.917L532.5 770L532.75 769L532.917 768L533 766L533 765L533 763L533 759L533 737L533 734L533 588L536.056 588L538 588L540 588.028L541 588.083L543 588.389L544 588.611L546 588.917L547 588.972L549 589L550 589L552 589L556 589L558 589L559 589.028L560 589.083L562 589.389L563 589.611L565 589.917L566 589.972L568 590L572 590L582 590L592 590L594 590L595 590L597 589.972L598 589.917L600 589.611L601 589.389L603 589.083L605 588.972L606 588.917L608 588.611L609 588.389L611 588.056L612 587.944L614 587.611L616 587.194L618 586.806L619 586.583L621 586L622 585.667L623 585.333L625 584.667L628 583.667L629 583.333L631 582.611L632 582.167L633 581.75L634 581.222L636 580.222L637 579.778L638 579.222L639 578.778L640 578.222L641 577.778L643 576.75L644 576.167L645 575.611L647 574.389L648 573.806L650 572.528L651 571.75L652 570.917L653 569.972L655 568L656 567L657.917 565L659.583 563L660.306 562L661.694 560L662.389 559L663.139 558L663.861 557L665.306 555L666.611 553L667.75 551L668.222 550L668.75 549L669.167 548L669.611 547L670.333 545L670.667 544L671 543L672 540L672.333 539L673.028 537L673.389 536L673.833 535L674.278 534L675.389 532L676.694 530L678.194 528L679.694 526L680.25 525L680.556 524L680.583 523L679.972 521L678.972 519L678.389 518L676.889 516L675.972 515L674 513L672 511L668 507L664 503L662 501L660 499.028L659 498.083L657 496.5L656 495.944L654 495.361L653 495.417L652 495.75L651 496.333L649 498.028L647 500L646.028 501L645.111 502L643.722 504L643.111 506L643.056 507L643.083 508L643.417 510L643.694 511L644.389 513L644.806 514L645.611 516L646.306 518L646.778 520L647.056 522L647.222 523L647.583 525L647.694 527L647.389 529L647.056 531L646.944 532L646.583 534L645.972 536L645.611 537L644.722 539L644.139 540L643.556 541L642.833 542L641.361 544L640.611 545L638.917 546.972L637.972 547.917L636 549.583L634 551L633 551.667L631 553L630 553.667L629 554.333L627 555.583L626 556.111L624 557L623 557.389L621 558.194L620 558.611L618 559.306L616 559.861L615 560.139L613 560.611L611 561L609 561.389L608 561.611L606 561.917L605 561.972L603 562L602 562L599 562L586 562L566 562L560 562L558 562L556 561.972L555 561.917L553 561.611L552 561.389L550 561.083L549 561.028L547 561L546 561L544 561L534 561L533 560L533 555L533 550L533 492L533 476L533 450L533 424L533 417L533 397L531.5 397L520 397L517 397L515 397L513 396.972L512 396.917L510.056 396.611L508.5 396.25L507 396M802 546L800.5 546.778L799.944 547.306L798.944 548.111L798 549.028L796.083 551L795.222 552L793.611 553.917L792.778 554.778L791.917 555.611L790 557.194L789 558L787 559.611L786 560.389L784 561.972L782 563.25L781 563.556L780 563.556L778 562.667L776 560.972L774.083 559L772.389 557L771.611 556L769.917 554L768 552.083L766.083 550.389L765.222 549.611L764.389 548.778L762.778 547.056L761.917 546.222L760 544.611L758 542.917L757 541.972L755 540L753 538L751 536L744 529L742 527L741 526L739 524L737 522L729 514L724 509L722 507L721 506L719 504.083L717 502.389L716 501.611L714.028 499.917L713.083 498.972L711.389 497L710.611 496L708.944 494L708.056 493L706.389 491L705.611 490L703.917 488L702 486L700 484L698 482.083L696 480.389L694 478.778L692 477.056L690 475.389L688 473.778L687 472.917L685 471L683 469L681 467.083L680 466.222L678.083 464.611L677.222 463.778L676.389 462.917L674.778 461L673.944 460L673.056 459L671.389 457L670.611 456L668.917 454L667 452L665 450.028L664 449.083L662 447.389L661 446.611L659 444.917L658 443.972L657 443L655.083 441L654.222 440L652.611 438L650.917 436L649.972 435L648 433L646.028 431L645.083 430L643.472 428L642.25 426.056L642 425.5L641 424L641.528 422.5L641.917 421.944L642.5 420.944L644 419L645.611 417L646.361 416L647.778 414L648.389 413L649.306 411L649.667 410L650.306 408L650.611 407L650.833 406.056L651.167 405.056L651.25 404.5L652 403L654.028 403.333L654.944 403.722L656.389 405.111L657.528 407L658.083 407.972L659.417 409.778L661.083 411.306L662.028 412L664 413.417L665 414.222L666 415.083L668 416.917L670 418.611L672 420.139L673 420.861L674 421.639L676 423.139L677 423.861L678 424.639L679 425.389L681 427.083L682 428.028L684 430L685 431L686.917 433L688.611 435L690.222 436.917L692.028 438.611L693 439.389L695 441.083L696 442.028L698 444L700 446L701 446.972L702 447.917L704 449.611L705 450.389L707 452.083L708 453.028L710 454.972L711 455.917L713 457.611L714 458.389L716 460.083L717 461.028L719 462.917L721 464.611L722 465.389L724 467.083L725 468.028L726 469L728 470.972L729.917 472.778L730.778 473.611L731.611 474.389L733.222 476.083L734.083 477.028L736 479L738 481L739 482L741 484L742 485L744 487L746 489L748 490.917L749 491.778L751 493.389L753 495.083L754 496.028L756 498L760 502L770 512L780 522L782 524L783 525L785 526.972L786 527.917L788 529.611L789 530.389L791 532.083L792 533.028L794 535L796 537L797 538L798 539L799.889 541L801.278 542.944L801.889 544.5L802 546M616 451L615.889 453.056L615.667 454.056L615.278 455L613.889 456.972L612.972 457.917L611.028 459.611L609.222 461.222L608.417 462.083L607.694 463.028L606.389 465L605.833 466L605.278 467L604.472 469L604.083 471L604.028 472L604 473L604.083 475L604.472 477L604.861 478L605.861 480L607.25 481.889L609.028 483.278L611 483.889L613 484L615 484L618 484L624 484L626 484L627 484L629 484L631 483.917L632 483.778L633 483.583L635 482.917L636.944 482L637.5 481.667L639 481L638.917 479.5L638.528 477.944L637.806 476L637.389 475L636.667 473L636.333 472L635.611 470L634.75 468L634.222 467L633.75 466L632.528 464L631.75 463L629.972 461L628 459.083L626 457.417L625 456.694L623 455.306L622 454.583L620 453.028L619.056 452.306L618.056 451.722L617.5 451.361L616 451z"/>
</svg>
