<?xml version="1.0" encoding="UTF-8"?>
<svg xmlns="http://www.w3.org/2000/svg" xmlns:xlink="http://www.w3.org/1999/xlink" width="24px" height="24px" viewBox="0 0 24 24" version="1.1">
<g id="surface1">
<path style=" stroke:none;fill-rule:nonzero;fill:rgb(6.27451%,7.450981%,7.450981%);fill-opacity:1;" d="M 11.882812 3.210938 L 12 3.210938 L 12.046875 3.203125 L 12.09375 3.191406 L 12.117188 3.1875 L 12.304688 3.1875 L 12.351562 3.195312 L 12.398438 3.207031 L 12.433594 3.210938 L 12.46875 3.210938 L 12.492188 3.1875 L 12.492188 2.882812 L 12.679688 2.882812 L 12.726562 2.890625 L 12.75 2.898438 L 12.796875 2.90625 L 12.84375 2.910156 L 12.867188 2.914062 L 12.914062 2.925781 L 12.9375 2.929688 L 12.984375 2.929688 L 13.03125 2.9375 L 13.054688 2.945312 L 13.148438 2.960938 L 13.195312 2.972656 L 13.21875 2.980469 L 13.242188 2.984375 L 13.265625 2.992188 L 13.289062 2.996094 L 13.3125 3.003906 L 13.359375 3.015625 L 13.382812 3.019531 L 13.429688 3.03125 L 13.78125 3.148438 L 13.851562 3.183594 L 13.875 3.191406 L 13.898438 3.207031 L 13.921875 3.214844 L 13.945312 3.230469 L 13.96875 3.238281 L 13.992188 3.253906 L 14.039062 3.277344 L 14.0625 3.285156 L 14.085938 3.300781 L 14.109375 3.308594 L 14.15625 3.332031 L 14.179688 3.347656 L 14.203125 3.355469 L 14.226562 3.371094 L 14.25 3.378906 L 14.273438 3.394531 L 14.34375 3.429688 L 14.695312 3.664062 L 14.71875 3.683594 L 14.765625 3.71875 L 14.789062 3.734375 L 14.8125 3.753906 L 14.859375 3.789062 L 14.882812 3.804688 L 14.929688 3.84375 L 14.976562 3.890625 L 15 3.910156 L 15.046875 3.945312 L 15.09375 3.984375 L 15.234375 4.125 L 15.273438 4.171875 L 15.289062 4.195312 L 15.328125 4.242188 L 15.375 4.289062 L 15.414062 4.335938 L 15.429688 4.359375 L 15.464844 4.40625 L 15.484375 4.429688 L 15.5 4.453125 L 15.519531 4.476562 L 15.554688 4.523438 L 15.648438 4.664062 L 15.683594 4.734375 L 15.699219 4.757812 L 15.707031 4.78125 L 15.722656 4.804688 L 15.730469 4.828125 L 15.746094 4.851562 L 15.769531 4.898438 L 15.777344 4.921875 L 15.792969 4.945312 L 15.816406 4.992188 L 15.824219 5.015625 L 15.839844 5.039062 L 15.847656 5.0625 L 15.863281 5.085938 L 15.882812 5.132812 L 15.90625 5.179688 L 15.945312 5.296875 L 15.957031 5.320312 L 15.976562 5.367188 L 15.992188 5.414062 L 16.003906 5.460938 L 16.011719 5.484375 L 16.015625 5.507812 L 16.03125 5.554688 L 16.042969 5.601562 L 16.050781 5.625 L 16.058594 5.671875 L 16.070312 5.71875 L 16.078125 5.765625 L 16.078125 5.8125 L 16.082031 5.835938 L 16.09375 5.882812 L 16.101562 5.929688 L 16.101562 6.117188 L 16.109375 6.164062 L 16.117188 6.1875 L 16.125 6.234375 L 16.125 6.84375 L 16.128906 6.867188 L 16.136719 6.890625 L 16.140625 6.914062 L 16.15625 6.960938 L 16.203125 7.054688 L 16.234375 7.101562 L 16.253906 7.125 L 16.269531 7.148438 L 16.328125 7.21875 L 16.363281 7.265625 L 16.378906 7.289062 L 16.398438 7.3125 L 16.414062 7.335938 L 16.433594 7.359375 L 16.449219 7.382812 L 16.46875 7.40625 L 16.625 7.640625 L 16.644531 7.664062 L 16.679688 7.710938 L 16.835938 7.945312 L 16.855469 7.96875 L 16.917969 8.0625 L 16.929688 8.085938 C 16.945312 8.109375 16.960938 8.132812 16.976562 8.15625 L 16.996094 8.179688 L 17.03125 8.226562 L 17.140625 8.390625 L 17.175781 8.4375 L 17.195312 8.460938 L 17.210938 8.484375 L 17.230469 8.507812 L 17.246094 8.53125 L 17.28125 8.578125 L 17.453125 8.835938 L 17.472656 8.859375 L 17.488281 8.882812 L 17.527344 8.929688 L 17.542969 8.953125 L 17.5625 8.976562 L 17.59375 9.023438 L 17.621094 9.070312 L 17.636719 9.117188 L 17.636719 9.140625 L 17.617188 9.183594 L 17.597656 9.203125 L 17.578125 9.21875 L 17.554688 9.226562 L 17.53125 9.230469 L 17.484375 9.234375 L 17.367188 9.234375 L 17.320312 9.242188 L 17.296875 9.25 L 17.25 9.257812 L 16.523438 9.257812 L 16.476562 9.265625 L 16.453125 9.273438 L 16.40625 9.28125 L 16.359375 9.285156 L 16.316406 9.296875 L 16.296875 9.3125 L 16.269531 9.351562 L 16.257812 9.375 L 16.242188 9.421875 L 16.222656 9.46875 L 16.214844 9.492188 L 16.207031 9.503906 L 16.195312 9.539062 L 16.160156 9.53125 L 16.125 9.507812 L 16.078125 9.46875 L 16.054688 9.445312 L 16.03125 9.425781 L 15.984375 9.390625 L 15.9375 9.351562 L 15.773438 9.1875 L 15.75 9.167969 L 15.726562 9.152344 L 15.679688 9.117188 L 15.585938 9.054688 L 15.5625 9.035156 L 15.515625 9 L 15.492188 8.976562 L 15.398438 8.90625 L 15.328125 8.871094 L 15.28125 8.855469 L 15.257812 8.851562 L 15.140625 8.8125 L 15.09375 8.800781 L 15.070312 8.792969 L 15.046875 8.789062 L 14.953125 8.789062 L 14.90625 8.777344 L 14.882812 8.773438 L 14.835938 8.757812 L 14.8125 8.746094 L 14.742188 8.722656 L 14.695312 8.703125 L 14.648438 8.675781 L 14.601562 8.640625 L 14.554688 8.601562 L 14.53125 8.578125 L 14.484375 8.539062 L 14.4375 8.503906 L 14.414062 8.484375 L 14.367188 8.449219 L 14.320312 8.421875 L 14.273438 8.390625 L 14.238281 8.402344 L 14.210938 8.425781 L 14.179688 8.460938 L 14.101562 8.578125 L 14.082031 8.601562 L 14.066406 8.625 L 14.046875 8.648438 L 14.03125 8.671875 L 13.992188 8.71875 L 13.804688 8.90625 L 13.824219 8.941406 L 13.835938 8.953125 L 13.875 9 L 13.945312 9.070312 L 13.992188 9.109375 L 14.039062 9.144531 L 14.0625 9.164062 L 14.132812 9.234375 L 14.15625 9.25 L 14.179688 9.269531 L 14.296875 9.347656 L 14.308594 9.359375 L 14.34375 9.375 L 14.332031 9.410156 L 14.3125 9.445312 L 14.265625 9.539062 L 14.253906 9.574219 L 14.25 9.609375 L 14.285156 9.617188 L 14.292969 9.625 L 14.3125 9.632812 L 14.328125 9.648438 L 14.367188 9.671875 L 14.402344 9.691406 L 14.4375 9.703125 L 14.4375 9.738281 L 14.425781 9.773438 L 14.40625 9.820312 L 14.378906 9.867188 L 14.332031 9.9375 L 14.308594 9.984375 L 14.308594 10.03125 L 14.332031 10.078125 L 14.367188 10.125 L 14.71875 10.476562 L 14.757812 10.523438 L 14.773438 10.546875 L 14.8125 10.59375 L 14.976562 10.757812 L 15.015625 10.804688 L 15.03125 10.828125 L 15.070312 10.875 L 15.492188 11.296875 L 15.53125 11.34375 L 15.546875 11.367188 L 15.585938 11.414062 L 15.796875 11.625 L 15.820312 11.644531 L 15.863281 11.679688 L 15.882812 11.699219 L 15.917969 11.742188 L 15.960938 11.789062 L 16.523438 12.351562 L 16.546875 12.371094 L 16.59375 12.40625 L 16.640625 12.445312 L 17.179688 12.984375 L 17.226562 13.023438 L 17.25 13.039062 L 17.296875 13.078125 L 17.765625 13.546875 L 17.8125 13.585938 L 17.835938 13.601562 L 17.859375 13.621094 L 17.90625 13.664062 L 17.953125 13.699219 L 18 13.726562 L 18.046875 13.746094 L 18.070312 13.753906 L 18.164062 13.777344 L 18.1875 13.78125 L 18.351562 13.78125 L 18.445312 13.757812 L 18.492188 13.742188 L 18.539062 13.722656 L 18.5625 13.710938 L 18.65625 13.640625 L 18.679688 13.617188 L 18.726562 13.578125 L 18.75 13.5625 L 18.796875 13.523438 L 19.195312 13.125 L 19.214844 13.101562 L 19.25 13.054688 L 19.3125 12.960938 L 19.347656 12.890625 L 19.359375 12.84375 L 19.359375 12.632812 L 19.347656 12.585938 L 19.328125 12.539062 L 19.300781 12.492188 L 19.265625 12.445312 L 19.242188 12.421875 L 19.203125 12.375 L 19.167969 12.335938 L 19.128906 12.300781 L 19.03125 12.203125 L 18.996094 12.171875 L 18.980469 12.152344 L 18.960938 12.136719 L 18.9375 12.117188 L 18.867188 12.046875 L 18.847656 12.023438 L 18.8125 11.984375 L 18.792969 11.96875 L 18.75 11.929688 L 18.351562 11.53125 L 18.3125 11.484375 L 18.296875 11.460938 L 18.257812 11.417969 L 18.210938 11.382812 L 18.164062 11.34375 L 18.046875 11.226562 L 18 11.1875 L 17.953125 11.152344 L 17.914062 11.109375 L 17.898438 11.085938 L 17.859375 11.046875 L 17.835938 11.03125 L 17.789062 10.992188 L 17.765625 10.96875 L 17.726562 10.921875 L 17.691406 10.875 L 17.671875 10.855469 L 17.648438 10.835938 L 17.601562 10.800781 L 17.582031 10.78125 L 17.546875 10.734375 L 17.507812 10.6875 L 17.390625 10.570312 L 17.351562 10.523438 L 17.335938 10.503906 L 17.316406 10.484375 L 17.273438 10.449219 L 17.25 10.429688 L 16.875 10.054688 L 16.839844 10.007812 L 16.828125 9.984375 L 16.8125 9.949219 L 16.804688 9.914062 L 16.839844 9.925781 L 16.875 9.933594 L 16.898438 9.9375 L 17.085938 9.9375 L 17.132812 9.929688 L 17.179688 9.917969 L 17.203125 9.914062 L 17.578125 9.914062 L 17.625 9.90625 L 17.648438 9.898438 L 17.695312 9.886719 L 17.71875 9.882812 L 17.859375 9.835938 L 17.882812 9.824219 L 17.929688 9.804688 L 17.976562 9.789062 L 18.046875 9.753906 L 18.070312 9.738281 L 18.09375 9.71875 L 18.117188 9.703125 L 18.164062 9.65625 L 18.183594 9.632812 L 18.199219 9.609375 L 18.21875 9.585938 L 18.25 9.539062 L 18.296875 9.445312 L 18.3125 9.398438 L 18.316406 9.375 L 18.328125 9.328125 L 18.328125 9.070312 L 18.324219 9.046875 L 18.316406 9.023438 L 18.3125 9 L 18.296875 8.953125 L 18.226562 8.8125 L 18.195312 8.765625 L 18.171875 8.71875 L 18.15625 8.695312 L 18.132812 8.648438 L 17.992188 8.4375 L 17.972656 8.414062 L 17.9375 8.367188 L 17.59375 7.851562 L 17.558594 7.804688 L 17.539062 7.78125 L 17.476562 7.6875 L 17.441406 7.640625 L 17.421875 7.617188 L 17.3125 7.453125 L 17.277344 7.40625 L 17.257812 7.382812 L 17.148438 7.21875 L 17.128906 7.195312 L 17.09375 7.148438 L 17 7.007812 L 16.972656 6.960938 L 16.960938 6.9375 L 16.929688 6.890625 L 16.910156 6.867188 L 16.875 6.820312 L 16.851562 6.796875 L 16.816406 6.75 L 16.796875 6.726562 L 16.785156 6.703125 L 16.765625 6.65625 L 16.757812 6.609375 L 16.757812 6 L 16.75 5.953125 L 16.742188 5.929688 L 16.734375 5.882812 L 16.730469 5.835938 L 16.726562 5.8125 L 16.714844 5.765625 L 16.710938 5.742188 L 16.710938 5.671875 L 16.707031 5.648438 L 16.695312 5.601562 L 16.691406 5.578125 L 16.683594 5.554688 L 16.671875 5.507812 L 16.65625 5.414062 L 16.644531 5.367188 L 16.636719 5.34375 L 16.632812 5.320312 L 16.5625 5.109375 L 16.550781 5.085938 L 16.53125 5.039062 L 16.46875 4.851562 L 16.433594 4.78125 L 16.425781 4.757812 L 16.390625 4.6875 L 16.375 4.640625 L 16.339844 4.570312 L 16.332031 4.546875 L 16.316406 4.523438 L 16.28125 4.453125 L 16 4.03125 L 15.980469 4.007812 L 15.964844 3.984375 L 15.929688 3.9375 L 15.890625 3.890625 L 15.867188 3.867188 L 15.828125 3.820312 L 15.8125 3.796875 L 15.773438 3.75 L 15.445312 3.421875 L 15.398438 3.382812 L 15.375 3.367188 L 15.328125 3.328125 L 15.304688 3.304688 L 15.257812 3.265625 L 15.210938 3.230469 L 15.1875 3.214844 L 15.164062 3.195312 L 15.140625 3.179688 L 15.117188 3.160156 L 15.070312 3.125 L 14.71875 2.890625 L 14.695312 2.878906 L 14.648438 2.851562 L 14.601562 2.820312 L 14.484375 2.761719 L 14.460938 2.746094 L 14.4375 2.738281 L 14.414062 2.722656 L 14.367188 2.703125 L 14.320312 2.679688 L 14.273438 2.664062 L 14.15625 2.605469 L 14.132812 2.597656 L 14.109375 2.582031 L 14.085938 2.574219 L 14.015625 2.539062 L 13.898438 2.5 L 13.851562 2.480469 L 13.828125 2.46875 L 13.617188 2.398438 L 13.570312 2.386719 L 13.546875 2.382812 L 13.523438 2.375 L 13.5 2.371094 L 13.476562 2.363281 L 13.429688 2.351562 L 13.40625 2.347656 L 13.382812 2.339844 L 13.335938 2.328125 L 13.242188 2.3125 L 13.195312 2.300781 L 13.171875 2.292969 L 13.148438 2.289062 L 13.125 2.28125 L 13.078125 2.273438 L 13.054688 2.273438 L 13.03125 2.269531 L 12.984375 2.257812 L 12.9375 2.25 L 12.867188 2.25 L 12.820312 2.242188 L 12.796875 2.234375 L 12.75 2.226562 L 12.5625 2.226562 L 12.515625 2.21875 L 12.46875 2.207031 L 12.445312 2.203125 L 12.398438 2.203125 L 12.375 2.199219 L 12.328125 2.1875 L 12.28125 2.179688 L 12.164062 2.179688 L 12.117188 2.191406 L 12.09375 2.195312 L 12.046875 2.210938 L 12 2.234375 L 11.953125 2.261719 L 11.914062 2.296875 L 11.882812 2.34375 L 11.871094 2.367188 L 11.859375 2.414062 L 11.859375 2.578125 L 11.863281 2.601562 L 11.875 2.648438 L 11.882812 2.695312 L 11.882812 2.789062 L 11.875 2.835938 L 11.867188 2.859375 L 11.859375 2.90625 L 11.859375 3.070312 L 11.867188 3.117188 L 11.875 3.140625 L 11.878906 3.164062 L 11.882812 3.175781 L 11.882812 3.210938 M 6.679688 9.914062 L 6.679688 10.851562 L 6.6875 10.898438 L 6.695312 10.921875 L 6.710938 11.015625 L 6.722656 11.0625 L 6.738281 11.109375 L 6.757812 11.15625 L 6.804688 11.25 L 6.832031 11.296875 L 6.867188 11.34375 L 7.007812 11.484375 L 7.054688 11.523438 L 7.078125 11.539062 L 7.171875 11.609375 L 7.265625 11.6875 L 7.300781 11.710938 L 7.335938 11.71875 L 7.335938 11.882812 L 7.328125 11.929688 L 7.320312 11.953125 L 7.3125 12 L 7.3125 12.210938 L 7.320312 12.257812 L 7.328125 12.28125 L 7.335938 12.328125 L 7.335938 12.375 L 7.34375 12.421875 L 7.355469 12.46875 L 7.363281 12.515625 L 7.371094 12.539062 L 7.382812 12.585938 L 7.414062 12.679688 L 7.425781 12.703125 L 7.445312 12.75 L 7.460938 12.796875 L 7.53125 12.9375 L 7.558594 12.984375 L 7.574219 13.007812 L 7.609375 13.054688 L 7.625 13.078125 L 7.664062 13.125 L 7.710938 13.171875 L 7.730469 13.195312 L 7.765625 13.238281 L 7.785156 13.257812 L 7.804688 13.273438 L 7.851562 13.3125 L 7.898438 13.359375 L 7.945312 13.394531 L 7.96875 13.414062 L 8.15625 13.539062 L 8.34375 13.632812 L 8.390625 13.648438 L 8.4375 13.667969 L 8.460938 13.679688 L 8.507812 13.695312 L 8.601562 13.71875 L 8.625 13.726562 L 8.648438 13.730469 L 8.695312 13.742188 L 8.71875 13.75 L 8.765625 13.757812 L 8.789062 13.757812 L 8.835938 13.765625 L 8.859375 13.773438 L 8.90625 13.78125 L 9.046875 13.78125 L 9.09375 13.789062 L 9.117188 13.796875 L 9.164062 13.804688 L 9.632812 13.804688 L 9.679688 13.796875 L 9.703125 13.789062 L 9.75 13.78125 L 10.453125 13.78125 L 10.476562 13.777344 L 10.523438 13.765625 L 10.570312 13.757812 L 10.710938 13.757812 L 10.710938 14.601562 L 10.726562 14.582031 L 10.726562 14.570312 L 10.734375 14.554688 L 10.734375 14.507812 L 10.757812 14.484375 L 11.226562 14.484375 L 11.25 14.460938 L 11.25 14.320312 L 11.257812 14.273438 L 11.265625 14.25 L 11.273438 14.203125 L 11.273438 14.085938 L 11.28125 14.039062 L 11.292969 13.992188 L 11.296875 13.96875 L 11.296875 13.898438 L 11.304688 13.851562 L 11.3125 13.828125 L 11.320312 13.78125 L 11.320312 13.617188 L 11.328125 13.570312 L 11.335938 13.546875 L 11.34375 13.5 L 11.34375 13.429688 L 11.347656 13.40625 L 11.359375 13.359375 L 11.367188 13.3125 L 11.367188 13.101562 L 10.992188 13.101562 L 10.945312 13.109375 L 10.898438 13.121094 L 10.875 13.125 L 10.101562 13.125 L 10.054688 13.132812 L 10.03125 13.140625 L 9.984375 13.148438 L 8.976562 13.148438 L 8.929688 13.140625 L 8.90625 13.132812 L 8.859375 13.125 L 8.835938 13.125 L 8.789062 13.117188 L 8.765625 13.109375 L 8.71875 13.097656 L 8.695312 13.09375 L 8.625 13.070312 L 8.601562 13.058594 L 8.554688 13.039062 L 8.507812 13.023438 L 8.414062 12.976562 L 8.390625 12.960938 L 8.296875 12.890625 L 8.132812 12.726562 L 8.117188 12.703125 L 8.097656 12.679688 L 8.070312 12.632812 L 8.023438 12.539062 L 8 12.46875 L 7.996094 12.445312 L 7.984375 12.398438 L 7.976562 12.375 L 7.96875 12.328125 L 7.96875 12.117188 L 7.976562 12.070312 L 7.984375 12.046875 L 7.992188 12 L 7.992188 11.8125 L 7.988281 11.789062 L 7.964844 11.695312 L 7.957031 11.671875 L 7.921875 11.601562 L 7.851562 11.507812 L 7.78125 11.4375 L 7.742188 11.390625 L 7.730469 11.378906 L 7.710938 11.34375 L 7.804688 11.34375 L 7.851562 11.351562 L 7.875 11.359375 L 7.921875 11.367188 L 8.203125 11.367188 L 8.25 11.359375 L 8.296875 11.347656 L 8.34375 11.339844 L 8.367188 11.332031 L 8.414062 11.3125 L 8.460938 11.285156 L 8.507812 11.25 L 8.542969 11.203125 L 8.566406 11.15625 L 8.574219 11.132812 L 8.585938 11.085938 L 8.59375 11.0625 L 8.601562 11.015625 L 8.601562 10.875 L 8.566406 10.851562 L 8.554688 10.847656 L 8.53125 10.832031 L 8.484375 10.816406 L 8.4375 10.804688 L 8.390625 10.804688 L 8.367188 10.800781 L 8.320312 10.789062 L 8.273438 10.78125 L 8.039062 10.78125 L 7.992188 10.789062 L 7.96875 10.796875 L 7.921875 10.804688 L 7.710938 10.804688 L 7.664062 10.796875 L 7.640625 10.789062 L 7.59375 10.78125 L 7.5 10.78125 L 7.453125 10.769531 L 7.40625 10.746094 L 7.367188 10.710938 L 7.34375 10.664062 L 7.335938 10.640625 L 7.332031 10.59375 L 7.328125 10.570312 L 7.320312 10.546875 L 7.3125 10.5 L 7.3125 9.75 L 7.320312 9.703125 L 7.328125 9.679688 L 7.335938 9.632812 L 7.335938 9.5625 L 7.328125 9.515625 L 7.320312 9.492188 L 7.3125 9.445312 L 7.296875 9.398438 L 7.28125 9.375 L 7.261719 9.351562 L 7.21875 9.3125 L 7.171875 9.289062 L 7.148438 9.28125 L 7.101562 9.273438 L 7.054688 9.261719 L 7.03125 9.257812 L 6.632812 9.257812 L 6.585938 9.25 L 6.5625 9.242188 L 6.515625 9.234375 L 6.070312 9.234375 L 6.046875 9.230469 L 6 9.21875 L 5.953125 9.210938 L 5.90625 9.199219 L 5.859375 9.179688 L 5.820312 9.152344 L 5.785156 9.117188 L 5.769531 9.070312 L 5.765625 9.046875 L 5.773438 9 L 5.792969 8.953125 L 5.808594 8.929688 L 5.84375 8.859375 L 5.875 8.8125 L 5.902344 8.765625 L 5.914062 8.742188 L 5.945312 8.695312 L 5.972656 8.648438 L 5.984375 8.625 L 6.109375 8.4375 L 6.121094 8.414062 L 6.148438 8.367188 L 6.273438 8.179688 L 6.285156 8.15625 L 6.3125 8.109375 L 6.34375 8.0625 L 6.371094 8.015625 L 6.382812 7.992188 L 6.460938 7.875 L 6.488281 7.828125 L 6.5 7.804688 L 6.765625 7.40625 L 6.785156 7.382812 L 6.800781 7.359375 L 6.839844 7.3125 L 6.855469 7.289062 L 6.875 7.265625 L 6.90625 7.21875 L 6.925781 7.195312 L 6.960938 7.148438 L 7.101562 7.007812 L 7.136719 6.960938 L 7.160156 6.914062 L 7.171875 6.867188 L 7.171875 5.367188 L 7.164062 5.34375 L 7.164062 5.332031 L 7.148438 5.296875 L 7.195312 5.308594 L 7.21875 5.316406 L 7.242188 5.320312 L 7.5 5.320312 L 7.546875 5.3125 L 7.570312 5.304688 L 7.617188 5.296875 L 7.640625 5.296875 L 7.6875 5.289062 L 7.710938 5.28125 L 7.757812 5.273438 L 7.78125 5.273438 L 7.828125 5.265625 L 7.851562 5.257812 L 7.898438 5.246094 L 7.921875 5.242188 L 7.945312 5.234375 L 7.96875 5.230469 L 8.015625 5.21875 L 8.039062 5.210938 L 8.0625 5.207031 L 8.109375 5.195312 L 8.203125 5.164062 L 8.25 5.152344 L 8.273438 5.148438 L 8.296875 5.140625 L 8.320312 5.136719 L 8.367188 5.125 L 8.460938 5.09375 L 8.484375 5.089844 L 8.53125 5.078125 L 8.671875 5.03125 L 8.695312 5.019531 L 8.742188 5 L 8.789062 4.984375 L 8.8125 4.972656 L 8.859375 4.953125 L 8.90625 4.9375 L 8.953125 4.914062 L 8.976562 4.90625 L 9.023438 4.882812 L 9.070312 4.867188 L 9.117188 4.84375 L 9.164062 4.824219 L 9.1875 4.808594 L 9.210938 4.800781 L 9.257812 4.777344 L 9.28125 4.761719 L 9.304688 4.753906 L 9.328125 4.738281 L 9.398438 4.703125 L 9.539062 4.609375 L 9.585938 4.574219 L 9.609375 4.554688 L 9.632812 4.539062 L 9.65625 4.519531 L 9.679688 4.503906 L 9.726562 4.46875 L 9.820312 4.390625 L 9.84375 4.375 L 9.890625 4.335938 L 9.960938 4.265625 L 9.984375 4.246094 L 10.03125 4.210938 L 10.078125 4.171875 L 10.101562 4.148438 L 10.140625 4.101562 L 10.15625 4.078125 L 10.195312 4.03125 L 10.21875 4.007812 L 10.257812 3.960938 L 10.273438 3.9375 L 10.292969 3.914062 L 10.308594 3.890625 L 10.34375 3.84375 L 10.382812 3.796875 L 10.417969 3.75 L 10.4375 3.726562 L 10.46875 3.679688 L 10.503906 3.636719 L 10.535156 3.605469 L 10.570312 3.585938 L 10.570312 3.773438 L 10.59375 3.867188 L 10.597656 3.878906 L 10.617188 3.914062 L 10.648438 3.894531 L 10.65625 3.882812 L 10.691406 3.84375 L 10.726562 3.796875 L 10.742188 3.773438 L 10.78125 3.726562 L 10.804688 3.703125 L 10.898438 3.632812 L 10.921875 3.617188 L 11.0625 3.546875 L 11.203125 3.5 L 11.25 3.480469 L 11.285156 3.457031 L 11.296875 3.4375 L 11.308594 3.421875 L 11.320312 3.375 L 11.320312 2.859375 L 11.3125 2.8125 L 11.304688 2.789062 L 11.296875 2.742188 L 11.296875 2.625 L 11.289062 2.578125 L 11.28125 2.554688 L 11.273438 2.507812 L 11.273438 2.367188 L 11.261719 2.320312 L 11.238281 2.28125 L 11.21875 2.261719 L 11.179688 2.238281 L 11.15625 2.234375 L 11.132812 2.226562 L 10.828125 2.226562 L 10.78125 2.234375 L 10.757812 2.242188 L 10.710938 2.25 L 10.640625 2.25 L 10.59375 2.257812 L 10.570312 2.265625 L 10.523438 2.273438 L 10.5 2.273438 L 10.453125 2.28125 L 10.429688 2.289062 L 10.382812 2.296875 L 10.359375 2.296875 L 10.3125 2.304688 L 10.289062 2.3125 L 10.195312 2.328125 L 10.171875 2.335938 L 10.078125 2.351562 L 10.03125 2.363281 L 9.960938 2.375 L 9.914062 2.386719 L 9.890625 2.394531 L 9.867188 2.398438 L 9.773438 2.429688 L 9.726562 2.441406 L 9.703125 2.445312 L 9.679688 2.453125 L 9.632812 2.464844 L 9.609375 2.46875 L 9.445312 2.523438 L 9.398438 2.535156 L 9.351562 2.550781 L 9.304688 2.570312 L 9.117188 2.632812 L 9.046875 2.667969 L 9.023438 2.675781 L 9 2.691406 L 8.976562 2.699219 L 8.953125 2.714844 L 8.929688 2.722656 L 8.882812 2.746094 L 8.859375 2.761719 L 8.835938 2.769531 L 8.765625 2.804688 L 8.742188 2.8125 L 8.695312 2.835938 L 8.671875 2.851562 L 8.625 2.875 L 8.578125 2.902344 L 8.554688 2.910156 L 8.53125 2.925781 L 8.460938 2.960938 L 8.0625 3.226562 L 8.039062 3.246094 L 8.015625 3.261719 L 7.96875 3.300781 L 7.921875 3.335938 L 7.828125 3.414062 L 7.804688 3.429688 L 7.757812 3.46875 L 7.429688 3.796875 L 7.390625 3.84375 L 7.375 3.867188 L 7.296875 3.960938 L 7.28125 3.984375 L 7.261719 4.007812 L 7.226562 4.054688 L 7.164062 4.148438 L 7.128906 4.195312 L 7.082031 4.265625 L 7.070312 4.289062 L 6.992188 4.40625 L 6.980469 4.429688 L 6.953125 4.476562 L 6.921875 4.523438 L 6.863281 4.640625 L 6.847656 4.664062 L 6.839844 4.6875 L 6.824219 4.710938 L 6.816406 4.734375 L 6.800781 4.757812 L 6.792969 4.78125 L 6.734375 4.898438 L 6.71875 4.945312 L 6.695312 4.992188 L 6.6875 5.015625 L 6.664062 5.0625 L 6.59375 5.273438 L 6.589844 5.296875 L 6.582031 5.320312 L 6.570312 5.367188 L 6.558594 5.4375 L 6.546875 5.484375 L 6.539062 5.53125 L 6.539062 5.554688 L 6.53125 5.601562 L 6.523438 5.625 L 6.515625 5.671875 L 6.515625 6.515625 L 6.523438 6.5625 L 6.523438 6.585938 L 6.507812 6.632812 L 6.226562 7.054688 L 6.207031 7.078125 L 6.144531 7.171875 L 6.132812 7.195312 L 5.820312 7.664062 L 5.808594 7.6875 L 5.78125 7.734375 L 5.75 7.78125 L 5.722656 7.828125 L 5.710938 7.851562 L 5.679688 7.898438 L 5.652344 7.945312 L 5.640625 7.96875 L 5.5625 8.085938 L 5.550781 8.109375 L 5.441406 8.273438 L 5.429688 8.296875 L 5.304688 8.484375 L 5.292969 8.507812 L 5.277344 8.53125 L 5.222656 8.625 L 5.207031 8.648438 L 5.195312 8.671875 L 5.164062 8.71875 L 5.117188 8.8125 L 5.09375 8.882812 L 5.089844 8.90625 L 5.078125 8.953125 L 5.070312 8.976562 L 5.0625 9.023438 L 5.0625 9.210938 L 5.070312 9.257812 L 5.082031 9.304688 L 5.105469 9.375 L 5.144531 9.46875 L 5.15625 9.492188 L 5.226562 9.585938 L 5.320312 9.679688 L 5.34375 9.695312 L 5.367188 9.714844 L 5.414062 9.742188 L 5.507812 9.789062 L 5.601562 9.820312 L 5.648438 9.832031 L 5.671875 9.839844 L 5.742188 9.851562 L 5.765625 9.859375 L 5.8125 9.867188 L 5.929688 9.867188 L 5.953125 9.871094 L 6 9.882812 L 6.046875 9.890625 L 6.234375 9.890625 L 6.28125 9.898438 L 6.304688 9.90625 L 6.351562 9.914062 L 6.679688 9.914062 M 10.054688 2.976562 L 10.054688 3.046875 L 10.042969 3.09375 L 10.019531 3.140625 L 9.992188 3.1875 L 9.914062 3.304688 L 9.84375 3.398438 L 9.804688 3.445312 L 9.769531 3.492188 L 9.753906 3.515625 L 9.734375 3.539062 L 9.71875 3.5625 L 9.679688 3.609375 L 9.445312 3.84375 L 9.398438 3.882812 L 9.375 3.898438 L 9.28125 3.976562 L 9.234375 4.011719 L 9.210938 4.027344 L 9.1875 4.046875 L 9.140625 4.078125 L 9.09375 4.105469 L 9.070312 4.121094 L 9.046875 4.132812 L 8.929688 4.210938 L 8.789062 4.28125 L 8.742188 4.296875 L 8.695312 4.316406 L 8.671875 4.328125 L 8.625 4.34375 L 8.578125 4.367188 L 8.554688 4.375 L 8.507812 4.394531 L 8.484375 4.402344 L 8.4375 4.414062 L 8.34375 4.445312 L 8.296875 4.457031 L 8.273438 4.460938 L 8.039062 4.539062 L 7.992188 4.550781 L 7.96875 4.554688 L 7.945312 4.5625 L 7.851562 4.578125 L 7.828125 4.585938 L 7.78125 4.59375 L 7.664062 4.59375 L 7.667969 4.558594 L 7.679688 4.523438 L 7.703125 4.476562 L 7.730469 4.429688 L 7.761719 4.382812 L 7.796875 4.335938 L 7.84375 4.265625 L 7.863281 4.242188 L 7.878906 4.21875 L 7.898438 4.195312 L 8.203125 3.890625 L 8.25 3.851562 L 8.273438 3.835938 L 8.367188 3.757812 L 8.414062 3.722656 L 8.4375 3.707031 L 8.460938 3.6875 L 8.742188 3.5 L 8.8125 3.464844 L 8.835938 3.449219 L 8.859375 3.441406 L 8.882812 3.425781 L 8.929688 3.402344 L 8.953125 3.394531 L 8.976562 3.378906 L 9 3.371094 L 9.023438 3.355469 L 9.046875 3.347656 L 9.070312 3.332031 L 9.09375 3.324219 L 9.164062 3.289062 L 9.210938 3.273438 L 9.257812 3.253906 L 9.28125 3.242188 L 9.328125 3.226562 L 9.375 3.207031 L 9.398438 3.195312 L 9.515625 3.15625 L 9.539062 3.144531 L 9.585938 3.125 L 9.726562 3.078125 L 9.773438 3.066406 L 9.796875 3.0625 L 9.9375 3.015625 L 9.960938 3.003906 L 9.972656 3 L 10.007812 2.976562 L 10.054688 2.976562 M 12.070312 3.523438 L 12.046875 3.53125 L 12 3.539062 L 11.976562 3.539062 L 11.929688 3.546875 L 11.882812 3.558594 L 11.835938 3.566406 L 11.8125 3.574219 L 11.789062 3.578125 L 11.671875 3.617188 L 11.648438 3.628906 L 11.601562 3.648438 L 11.484375 3.6875 L 11.460938 3.699219 L 11.414062 3.71875 L 11.296875 3.757812 L 11.273438 3.769531 L 11.226562 3.789062 L 11.179688 3.804688 L 11.0625 3.863281 L 10.992188 3.910156 L 10.96875 3.929688 L 10.875 4 L 10.851562 4.015625 L 10.804688 4.054688 L 10.78125 4.078125 L 10.757812 4.097656 L 10.710938 4.132812 L 10.664062 4.171875 L 10.570312 4.265625 L 10.527344 4.304688 L 10.507812 4.320312 L 10.492188 4.339844 L 10.453125 4.382812 L 10.40625 4.429688 L 10.367188 4.476562 L 10.351562 4.5 L 10.3125 4.546875 L 10.289062 4.570312 L 10.25 4.617188 L 10.214844 4.664062 L 10.199219 4.6875 L 10.179688 4.710938 L 10.039062 4.921875 L 9.945312 5.109375 L 9.929688 5.15625 L 9.910156 5.203125 L 9.898438 5.226562 L 9.882812 5.273438 L 9.871094 5.296875 L 9.839844 5.390625 L 9.835938 5.414062 L 9.804688 5.507812 L 9.792969 5.554688 L 9.789062 5.578125 L 9.78125 5.601562 L 9.777344 5.625 L 9.769531 5.648438 L 9.757812 5.695312 L 9.742188 5.789062 L 9.730469 5.835938 L 9.726562 5.859375 L 9.726562 5.929688 L 9.71875 5.976562 L 9.710938 6 L 9.703125 6.046875 L 9.703125 6.421875 L 9.710938 6.46875 L 9.71875 6.492188 L 9.726562 6.539062 L 9.726562 6.65625 L 9.734375 6.703125 L 9.742188 6.726562 L 9.75 6.773438 L 9.75 6.84375 L 9.753906 6.867188 L 9.777344 6.960938 L 9.78125 6.984375 L 9.789062 7.007812 L 9.792969 7.03125 L 9.804688 7.078125 L 9.875 7.289062 L 9.910156 7.359375 L 9.917969 7.382812 L 9.933594 7.40625 L 9.941406 7.429688 L 9.957031 7.453125 L 10.015625 7.570312 L 10.046875 7.617188 L 10.074219 7.664062 L 10.085938 7.6875 L 10.179688 7.828125 L 10.199219 7.851562 L 10.234375 7.898438 L 10.3125 8.015625 L 10.382812 8.109375 L 10.617188 8.34375 L 10.664062 8.382812 L 10.6875 8.398438 L 10.734375 8.433594 L 10.757812 8.453125 L 11.039062 8.640625 L 11.085938 8.664062 L 11.109375 8.679688 L 11.15625 8.703125 L 11.203125 8.734375 L 11.34375 8.804688 L 11.390625 8.820312 L 11.4375 8.839844 L 11.460938 8.851562 L 11.507812 8.867188 L 11.53125 8.878906 L 11.625 8.910156 L 11.648438 8.914062 L 11.671875 8.921875 L 11.695312 8.925781 L 11.742188 8.9375 L 11.765625 8.945312 L 11.8125 8.953125 L 11.835938 8.953125 L 11.882812 8.960938 L 11.90625 8.96875 L 11.953125 8.976562 L 12.023438 8.976562 L 12.070312 8.984375 L 12.09375 8.992188 L 12.140625 9 L 12.65625 9 L 12.679688 8.996094 L 12.726562 8.984375 L 12.773438 8.976562 L 12.796875 8.976562 L 12.84375 8.96875 L 12.867188 8.960938 L 12.914062 8.949219 L 12.9375 8.945312 L 12.960938 8.9375 L 12.984375 8.933594 L 13.03125 8.921875 L 13.054688 8.914062 L 13.101562 8.902344 L 13.125 8.898438 L 13.148438 8.890625 L 13.171875 8.886719 L 13.21875 8.875 L 13.289062 8.851562 L 13.3125 8.839844 L 13.40625 8.800781 L 13.453125 8.777344 L 13.5 8.75 L 13.546875 8.726562 L 13.59375 8.699219 L 13.617188 8.691406 L 13.640625 8.675781 L 13.710938 8.640625 L 13.828125 8.5625 L 13.851562 8.542969 L 13.875 8.527344 L 13.945312 8.46875 L 13.96875 8.453125 L 14.015625 8.414062 L 14.34375 8.085938 L 14.382812 8.039062 L 14.398438 8.015625 L 14.417969 7.992188 L 14.433594 7.96875 L 14.46875 7.921875 L 14.488281 7.898438 L 14.519531 7.851562 L 14.546875 7.804688 L 14.558594 7.78125 L 14.574219 7.757812 L 14.582031 7.734375 L 14.597656 7.710938 L 14.632812 7.640625 L 14.664062 7.59375 L 14.6875 7.546875 L 14.714844 7.5 L 14.722656 7.476562 L 14.738281 7.453125 L 14.746094 7.429688 L 14.78125 7.359375 L 14.851562 7.148438 L 14.863281 7.101562 L 14.867188 7.078125 L 14.875 7.054688 L 14.878906 7.03125 L 14.890625 6.984375 L 14.898438 6.960938 L 14.90625 6.914062 L 14.90625 6.867188 L 14.910156 6.84375 L 14.921875 6.796875 L 14.929688 6.75 L 14.929688 6.65625 L 14.9375 6.609375 L 14.945312 6.585938 L 14.953125 6.539062 L 14.953125 6.28125 L 14.945312 6.234375 L 14.9375 6.210938 L 14.929688 6.164062 L 14.929688 6 L 14.921875 5.953125 L 14.914062 5.929688 L 14.90625 5.882812 L 14.90625 5.859375 L 14.898438 5.8125 L 14.890625 5.789062 L 14.875 5.695312 L 14.867188 5.671875 L 14.859375 5.625 L 14.835938 5.53125 L 14.78125 5.367188 L 14.769531 5.34375 L 14.75 5.296875 L 14.734375 5.25 L 14.710938 5.203125 L 14.703125 5.179688 L 14.679688 5.132812 L 14.664062 5.085938 L 14.59375 4.945312 L 14.5625 4.898438 L 14.535156 4.851562 L 14.523438 4.828125 L 14.382812 4.617188 L 14.363281 4.59375 L 14.328125 4.546875 L 14.3125 4.523438 L 14.292969 4.5 L 14.257812 4.453125 L 14.242188 4.429688 L 14.203125 4.382812 L 13.945312 4.125 L 13.898438 4.085938 L 13.875 4.070312 L 13.78125 3.992188 L 13.734375 3.957031 L 13.710938 3.941406 L 13.664062 3.90625 L 13.617188 3.875 L 13.59375 3.863281 L 13.546875 3.835938 L 13.5 3.804688 L 13.429688 3.769531 L 13.382812 3.75 L 13.359375 3.742188 L 13.3125 3.722656 L 13.289062 3.710938 L 13.242188 3.695312 L 13.195312 3.675781 L 13.171875 3.664062 L 13.03125 3.617188 L 13.007812 3.613281 L 12.960938 3.601562 L 12.9375 3.59375 L 12.914062 3.589844 L 12.867188 3.578125 L 12.84375 3.570312 L 12.796875 3.5625 L 12.773438 3.5625 L 12.726562 3.554688 L 12.703125 3.546875 L 12.65625 3.539062 L 12.632812 3.539062 L 12.585938 3.53125 L 12.5625 3.523438 L 12.515625 3.515625 L 12.117188 3.515625 L 12.070312 3.523438 M 12.09375 4.152344 L 12.117188 4.148438 L 12.421875 4.148438 L 12.46875 4.15625 L 12.492188 4.164062 L 12.539062 4.171875 L 12.609375 4.171875 L 12.65625 4.179688 L 12.679688 4.1875 L 12.726562 4.199219 L 12.75 4.203125 L 12.890625 4.25 L 12.914062 4.261719 L 12.960938 4.28125 L 13.007812 4.296875 L 13.125 4.355469 L 13.148438 4.363281 L 13.171875 4.378906 L 13.242188 4.414062 L 13.382812 4.507812 L 13.40625 4.527344 L 13.429688 4.542969 L 13.476562 4.578125 L 13.570312 4.65625 L 13.59375 4.671875 L 13.640625 4.710938 L 13.664062 4.734375 L 13.703125 4.78125 L 13.71875 4.804688 L 13.757812 4.851562 L 13.78125 4.875 L 13.824219 4.921875 L 13.84375 4.945312 L 13.878906 4.992188 L 13.894531 5.015625 L 13.914062 5.039062 L 13.945312 5.085938 L 13.972656 5.132812 L 13.984375 5.15625 L 14 5.179688 L 14.023438 5.226562 L 14.054688 5.273438 L 14.101562 5.367188 L 14.117188 5.414062 L 14.136719 5.460938 L 14.148438 5.484375 L 14.195312 5.625 L 14.199219 5.648438 L 14.210938 5.695312 L 14.21875 5.71875 L 14.222656 5.742188 L 14.234375 5.789062 L 14.242188 5.8125 L 14.25 5.859375 L 14.25 5.882812 L 14.257812 5.929688 L 14.265625 5.953125 L 14.273438 6 L 14.273438 6.023438 L 14.28125 6.070312 L 14.289062 6.09375 L 14.296875 6.140625 L 14.296875 6.515625 L 14.289062 6.5625 L 14.28125 6.585938 L 14.273438 6.632812 L 14.273438 6.65625 L 14.265625 6.703125 L 14.253906 6.75 L 14.25 6.796875 L 14.242188 6.84375 L 14.230469 6.890625 L 14.222656 6.914062 L 14.21875 6.9375 L 14.210938 6.960938 L 14.207031 6.984375 L 14.199219 7.007812 L 14.195312 7.03125 L 14.148438 7.171875 L 14.136719 7.195312 L 14.117188 7.242188 L 14.101562 7.289062 L 14.019531 7.453125 L 13.972656 7.523438 L 13.9375 7.570312 L 13.878906 7.640625 L 13.84375 7.6875 L 13.804688 7.734375 L 13.664062 7.875 L 13.617188 7.914062 L 13.59375 7.929688 L 13.570312 7.949219 L 13.546875 7.964844 L 13.5 8 L 13.476562 8.019531 L 13.429688 8.050781 L 13.382812 8.078125 L 13.359375 8.089844 L 13.335938 8.105469 L 13.3125 8.113281 L 13.289062 8.128906 L 13.265625 8.136719 L 13.242188 8.152344 L 13.21875 8.160156 L 13.195312 8.175781 L 13.171875 8.183594 L 13.101562 8.21875 L 12.890625 8.289062 L 12.84375 8.300781 L 12.820312 8.304688 L 12.796875 8.3125 L 12.726562 8.324219 L 12.679688 8.335938 L 12.65625 8.339844 L 12.609375 8.34375 L 12.585938 8.34375 L 12.539062 8.351562 L 12.515625 8.359375 L 12.46875 8.367188 L 12.304688 8.367188 L 12.257812 8.359375 L 12.210938 8.347656 L 12.1875 8.34375 L 12.140625 8.34375 L 12.09375 8.335938 L 12.070312 8.328125 L 12.046875 8.324219 L 12.023438 8.316406 L 11.976562 8.304688 L 11.929688 8.296875 L 11.835938 8.273438 L 11.789062 8.257812 L 11.742188 8.246094 L 11.695312 8.230469 L 11.648438 8.210938 L 11.601562 8.195312 L 11.484375 8.136719 L 11.460938 8.128906 L 11.4375 8.113281 L 11.367188 8.078125 L 11.226562 7.984375 L 11.179688 7.949219 L 11.15625 7.929688 L 11.132812 7.914062 L 11.085938 7.875 L 11.039062 7.828125 L 10.992188 7.785156 L 10.945312 7.75 L 10.898438 7.710938 L 10.804688 7.617188 L 10.765625 7.570312 L 10.75 7.546875 L 10.691406 7.476562 L 10.675781 7.453125 L 10.640625 7.40625 L 10.578125 7.3125 L 10.542969 7.242188 L 10.527344 7.21875 L 10.519531 7.195312 L 10.503906 7.171875 L 10.496094 7.148438 L 10.480469 7.125 L 10.472656 7.101562 L 10.4375 7.03125 L 10.414062 6.960938 L 10.402344 6.914062 L 10.398438 6.890625 L 10.390625 6.867188 L 10.386719 6.84375 L 10.378906 6.820312 L 10.367188 6.773438 L 10.363281 6.75 L 10.355469 6.726562 L 10.34375 6.679688 L 10.335938 6.632812 L 10.335938 6.585938 L 10.328125 6.539062 L 10.320312 6.515625 L 10.3125 6.46875 L 10.3125 6.09375 L 10.320312 6.046875 L 10.328125 6.023438 L 10.335938 5.976562 L 10.335938 5.953125 L 10.34375 5.90625 L 10.355469 5.859375 L 10.367188 5.789062 L 10.375 5.765625 L 10.378906 5.742188 L 10.386719 5.71875 L 10.390625 5.695312 L 10.484375 5.414062 L 10.519531 5.34375 L 10.527344 5.320312 L 10.542969 5.296875 L 10.550781 5.273438 L 10.566406 5.25 L 10.625 5.132812 L 10.71875 4.992188 L 10.753906 4.945312 L 10.773438 4.921875 L 10.789062 4.898438 L 10.828125 4.851562 L 11.015625 4.664062 L 11.0625 4.625 L 11.085938 4.609375 L 11.15625 4.550781 L 11.179688 4.535156 L 11.226562 4.5 L 11.390625 4.390625 L 11.507812 4.332031 L 11.53125 4.316406 L 11.554688 4.308594 L 11.625 4.273438 L 11.835938 4.203125 L 11.859375 4.199219 L 11.882812 4.191406 L 11.929688 4.179688 L 11.976562 4.171875 L 12 4.171875 L 12.046875 4.164062 L 12.09375 4.152344 M 11.90625 4.40625 L 11.882812 4.429688 L 11.882812 8.0625 L 12.375 8.0625 L 12.421875 8.070312 L 12.492188 8.085938 L 12.492188 4.40625 L 12.398438 4.40625 L 12.351562 4.398438 L 12.328125 4.390625 L 12.28125 4.382812 L 12.09375 4.382812 L 12.046875 4.390625 L 12.023438 4.398438 L 11.976562 4.40625 L 11.90625 4.40625 M 8.109375 6.335938 L 8.085938 6.34375 L 8.039062 6.355469 L 8.015625 6.363281 L 7.96875 6.386719 L 7.921875 6.421875 L 7.882812 6.46875 L 7.855469 6.515625 L 7.839844 6.5625 L 7.828125 6.609375 L 7.828125 6.703125 L 7.835938 6.726562 L 7.839844 6.75 L 7.863281 6.796875 L 7.898438 6.835938 L 7.921875 6.851562 L 7.96875 6.875 L 7.992188 6.878906 L 8.039062 6.890625 L 8.835938 6.890625 L 8.882812 6.878906 L 8.90625 6.875 L 8.953125 6.855469 L 9 6.832031 L 9.035156 6.796875 L 9.070312 6.726562 L 9.09375 6.632812 L 9.09375 6.539062 L 9.082031 6.492188 L 9.070312 6.46875 L 9.058594 6.449219 L 9.039062 6.433594 L 9 6.398438 L 8.953125 6.375 L 8.90625 6.359375 L 8.882812 6.355469 L 8.835938 6.34375 L 8.8125 6.335938 L 8.765625 6.328125 L 8.15625 6.328125 L 8.109375 6.335938 M 11.882812 9.28125 L 11.882812 9.75 L 11.875 9.796875 L 11.867188 9.820312 L 11.863281 9.867188 L 11.863281 9.890625 L 11.867188 9.9375 L 11.875 9.960938 L 11.882812 10.007812 L 11.882812 10.429688 L 11.875 10.476562 L 11.867188 10.5 L 11.859375 10.546875 L 11.859375 10.640625 L 11.867188 10.6875 L 11.875 10.710938 L 11.882812 10.757812 L 11.882812 10.921875 L 11.875 10.96875 L 11.863281 11.015625 L 11.859375 11.039062 L 11.859375 13.335938 L 11.867188 13.382812 L 11.875 13.40625 L 11.882812 13.453125 L 11.882812 13.804688 L 11.875 13.851562 L 11.867188 13.875 L 11.859375 13.921875 L 11.859375 17.953125 L 11.867188 17.976562 L 11.871094 18 L 11.878906 18.023438 L 11.890625 18.046875 L 11.917969 18.09375 L 11.9375 18.109375 L 11.976562 18.144531 L 12.070312 18.191406 L 12.09375 18.199219 L 12.140625 18.210938 L 12.234375 18.210938 L 12.28125 18.199219 L 12.304688 18.191406 L 12.398438 18.144531 L 12.421875 18.128906 L 12.457031 18.09375 L 12.480469 18.046875 L 12.484375 18.023438 L 12.492188 18 L 12.492188 13.78125 L 12.679688 13.78125 L 12.726562 13.789062 L 12.75 13.796875 L 12.796875 13.804688 L 13.125 13.804688 L 13.171875 13.8125 L 13.195312 13.820312 L 13.242188 13.828125 L 14.015625 13.828125 L 14.0625 13.820312 L 14.085938 13.8125 L 14.132812 13.804688 L 14.203125 13.804688 L 14.25 13.796875 L 14.273438 13.789062 L 14.320312 13.78125 L 14.34375 13.78125 L 14.390625 13.773438 L 14.4375 13.761719 L 14.484375 13.753906 L 14.507812 13.746094 L 14.554688 13.734375 L 14.789062 13.65625 L 14.90625 13.597656 L 14.929688 13.589844 L 14.953125 13.574219 L 14.976562 13.566406 L 15 13.550781 L 15.023438 13.542969 L 15.070312 13.515625 L 15.117188 13.492188 L 15.164062 13.460938 L 15.1875 13.449219 L 15.234375 13.417969 L 15.257812 13.398438 L 15.28125 13.382812 L 15.421875 13.242188 L 15.457031 13.195312 L 15.476562 13.171875 L 15.523438 13.101562 L 15.542969 13.078125 L 15.558594 13.054688 L 15.59375 13.007812 L 15.625 12.960938 L 15.695312 12.820312 L 15.78125 12.5625 L 15.828125 12.46875 L 15.859375 12.421875 L 15.929688 12.328125 L 15.945312 12.304688 L 15.949219 12.28125 L 15.949219 12.257812 L 15.9375 12.210938 L 15.914062 12.164062 L 15.898438 12.140625 L 15.863281 12.09375 L 15.84375 12.070312 L 15.445312 11.671875 L 15.398438 11.636719 L 15.375 11.625 L 15.328125 11.609375 L 15.28125 11.617188 L 15.257812 11.632812 L 15.210938 11.671875 L 15.140625 11.742188 L 15.121094 11.765625 L 15.085938 11.8125 L 15.074219 11.859375 L 15.070312 11.882812 L 15.070312 11.90625 L 15.082031 11.953125 L 15.085938 11.976562 L 15.101562 12.023438 L 15.113281 12.046875 L 15.132812 12.09375 L 15.148438 12.140625 L 15.160156 12.1875 L 15.164062 12.234375 L 15.175781 12.304688 L 15.179688 12.351562 L 15.164062 12.445312 L 15.164062 12.46875 L 15.140625 12.5625 L 15.132812 12.585938 L 15.097656 12.65625 L 15.066406 12.703125 L 15.03125 12.75 L 15.015625 12.773438 L 14.976562 12.820312 L 14.953125 12.84375 L 14.859375 12.914062 L 14.742188 12.992188 L 14.695312 13.019531 L 14.671875 13.035156 L 14.625 13.054688 L 14.601562 13.0625 L 14.554688 13.082031 L 14.53125 13.09375 L 14.484375 13.109375 L 14.4375 13.121094 L 14.414062 13.128906 L 14.367188 13.140625 L 14.273438 13.15625 L 14.25 13.164062 L 14.203125 13.171875 L 13.007812 13.171875 L 12.960938 13.164062 L 12.9375 13.15625 L 12.890625 13.148438 L 12.515625 13.148438 L 12.492188 13.125 L 12.492188 9.304688 L 12 9.304688 L 11.953125 9.296875 L 11.882812 9.28125 M 18.796875 12.796875 L 18.761719 12.816406 L 18.75 12.828125 L 18.703125 12.867188 L 18.65625 12.914062 L 18.636719 12.9375 L 18.601562 12.984375 L 18.5625 13.023438 L 18.515625 13.058594 L 18.445312 13.117188 L 18.421875 13.132812 L 18.375 13.171875 L 18.328125 13.203125 L 18.304688 13.207031 L 18.28125 13.207031 L 18.234375 13.1875 L 18.1875 13.148438 L 18.140625 13.101562 L 18.101562 13.054688 L 18.085938 13.03125 L 18.046875 12.984375 L 18 12.9375 L 17.953125 12.898438 L 17.933594 12.882812 L 17.914062 12.863281 L 17.878906 12.820312 L 17.859375 12.800781 L 17.8125 12.765625 L 17.765625 12.726562 L 16.851562 11.8125 L 16.804688 11.773438 L 16.78125 11.757812 L 16.734375 11.71875 L 16.710938 11.695312 L 16.671875 11.648438 L 16.65625 11.625 L 16.617188 11.578125 L 16.59375 11.554688 L 16.554688 11.507812 L 16.539062 11.484375 L 16.5 11.4375 L 16.359375 11.296875 L 16.3125 11.257812 L 16.265625 11.222656 L 16.21875 11.179688 L 16.171875 11.140625 L 16.125 11.105469 L 16.101562 11.085938 L 15.960938 10.945312 L 15.9375 10.925781 L 15.890625 10.890625 L 15.851562 10.851562 L 15.816406 10.804688 L 15.796875 10.78125 L 15.773438 10.757812 L 15.734375 10.710938 L 15.71875 10.6875 L 15.679688 10.640625 L 15.5625 10.523438 L 15.515625 10.484375 L 15.492188 10.46875 L 15.445312 10.429688 L 15.351562 10.335938 L 15.332031 10.3125 L 15.296875 10.265625 L 15.257812 10.21875 L 15.117188 10.078125 L 15.082031 10.03125 L 15.054688 9.984375 L 15.023438 9.9375 L 15.035156 9.902344 L 15.046875 9.890625 L 15.058594 9.867188 L 15.09375 9.820312 L 15.132812 9.773438 L 15.148438 9.75 L 15.183594 9.703125 L 15.21875 9.632812 L 15.25 9.539062 L 15.253906 9.515625 L 15.265625 9.480469 L 15.28125 9.445312 L 15.328125 9.453125 L 15.351562 9.460938 L 15.382812 9.496094 L 15.410156 9.539062 L 15.421875 9.5625 L 15.457031 9.605469 L 15.492188 9.640625 L 15.515625 9.65625 L 15.5625 9.691406 L 15.585938 9.707031 L 15.609375 9.726562 L 15.65625 9.773438 L 15.703125 9.8125 L 15.75 9.847656 L 15.773438 9.863281 L 15.796875 9.882812 L 15.84375 9.917969 L 15.867188 9.933594 L 15.890625 9.953125 L 15.914062 9.96875 L 15.960938 10.007812 L 16.101562 10.148438 L 16.140625 10.195312 L 16.175781 10.242188 L 16.21875 10.28125 L 16.242188 10.296875 L 16.289062 10.335938 L 16.453125 10.5 L 16.5 10.539062 L 16.523438 10.554688 L 16.570312 10.59375 L 16.664062 10.6875 L 16.710938 10.726562 L 16.734375 10.742188 L 16.78125 10.78125 L 16.851562 10.851562 L 16.898438 10.890625 L 16.921875 10.90625 L 16.96875 10.945312 L 17.0625 11.039062 L 17.109375 11.082031 L 17.128906 11.101562 L 17.148438 11.117188 L 17.183594 11.15625 L 17.203125 11.179688 L 17.53125 11.507812 L 17.554688 11.527344 L 17.601562 11.5625 L 17.648438 11.601562 L 18.421875 12.375 L 18.46875 12.414062 L 18.492188 12.429688 L 18.539062 12.46875 L 18.703125 12.632812 L 18.746094 12.679688 L 18.78125 12.726562 L 18.792969 12.761719 L 18.796875 12.796875 M 14.4375 10.570312 L 14.433594 10.617188 L 14.429688 10.640625 L 14.421875 10.664062 L 14.386719 10.710938 L 14.367188 10.734375 L 14.320312 10.773438 L 14.277344 10.808594 L 14.261719 10.828125 L 14.242188 10.851562 L 14.210938 10.898438 L 14.1875 10.945312 L 14.167969 10.992188 L 14.15625 11.039062 L 14.15625 11.132812 L 14.167969 11.179688 L 14.175781 11.203125 L 14.199219 11.25 L 14.234375 11.292969 L 14.273438 11.328125 L 14.320312 11.339844 L 14.367188 11.34375 L 14.789062 11.34375 L 14.8125 11.339844 L 14.835938 11.332031 L 14.882812 11.320312 L 14.929688 11.296875 L 14.941406 11.289062 L 14.976562 11.273438 L 14.976562 11.238281 L 14.949219 11.15625 L 14.9375 11.132812 L 14.898438 11.015625 L 14.851562 10.921875 L 14.824219 10.875 L 14.765625 10.804688 L 14.71875 10.757812 L 14.671875 10.722656 L 14.648438 10.703125 L 14.601562 10.671875 L 14.578125 10.652344 L 14.53125 10.617188 L 14.472656 10.578125 Z M 14.4375 10.570312 "/>
</g>
</svg>
